<svg width="242" height="73" viewBox="0 0 242 73" fill="none" xmlns="http://www.w3.org/2000/svg">
<path d="M230.863 47.5565L230.866 47.5584C230.872 47.5614 230.878 47.5637 230.884 47.5654C230.903 47.562 230.92 47.5535 230.933 47.5412C230.95 47.5256 230.962 47.5026 230.965 47.4746L230.965 47.4711C231.184 45.085 232.278 42.8643 234.035 41.2353C235.792 39.6061 238.089 38.6832 240.485 38.6437L240.493 38.6435V38.6436C240.519 38.6436 240.545 38.6329 240.563 38.6148C240.581 38.5972 240.591 38.5727 240.591 38.5455C240.591 38.5184 240.581 38.4938 240.563 38.4762C240.546 38.4587 240.521 38.4481 240.496 38.4475C239.359 38.4676 238.231 38.248 237.184 37.803L237.184 37.8029C236.136 37.357 235.194 36.6948 234.418 35.86L234.418 35.8597C233.643 35.0246 233.053 34.0353 232.687 32.9568L232.686 32.9562C232.321 31.879 232.187 30.7366 232.292 29.6037C232.293 29.5902 232.291 29.5777 232.288 29.5667C232.283 29.5525 232.277 29.5432 232.272 29.5369L232.268 29.5323L232.268 29.5322C232.259 29.5227 232.249 29.5146 232.238 29.5087C232.232 29.5058 232.226 29.5034 232.219 29.5017C232.202 29.505 232.185 29.5134 232.171 29.526C232.154 29.5415 232.142 29.5644 232.139 29.5921C231.953 31.837 230.99 33.9469 229.414 35.5584L230.863 47.5565ZM230.863 47.5565C230.852 47.5513 230.843 47.5442 230.835 47.535C230.828 47.5261 230.821 47.5148 230.816 47.5005C230.813 47.4889 230.811 47.4758 230.812 47.4615L230.314 47.4211L230.812 47.4676C230.918 46.3324 230.783 45.1873 230.416 44.1076C230.049 43.028 229.458 42.0379 228.681 41.2026C227.905 40.3671 226.96 39.7053 225.911 39.2602L225.911 39.2601M230.863 47.5565L225.911 39.2601M225.911 39.2601C224.863 38.8161 223.733 38.5978 222.595 38.6196C222.571 38.6189 222.548 38.6091 222.529 38.5909L222.529 38.5909M225.911 39.2601L222.529 38.5909M222.529 38.5909C222.51 38.5714 222.5 38.546 222.5 38.5216C222.5 38.4972 222.51 38.4718 222.529 38.4523L222.529 38.4523M222.529 38.5909L222.529 38.4523M222.529 38.4523C222.546 38.4357 222.567 38.426 222.589 38.4239C222.89 38.4424 223.192 38.4419 223.492 38.4225L223.503 38.4218M222.529 38.4523L223.503 38.4218M223.503 38.4218L223.513 38.4207M223.503 38.4218L223.513 38.4207M223.513 38.4207C225.753 38.182 227.84 37.1699 229.414 35.5585L223.513 38.4207Z" fill="#FFE5EC" stroke="#FF4D7C"/>
<g filter="url(#filter0_d_405_9)">
<mask id="path-2-outside-1_405_9" maskUnits="userSpaceOnUse" x="0" y="37" width="112" height="29" fill="black">
<rect fill="white" y="37" width="112" height="29"/>
<path d="M22.304 45.952L19.104 64H12L12.48 61.28C11.776 62.1333 10.912 62.8267 9.888 63.36C8.864 63.872 7.72267 64.128 6.464 64.128C4.71467 64.128 3.37067 63.6267 2.432 62.624C1.49333 61.6 1.024 60.2027 1.024 58.432C1.024 57.792 1.088 57.12 1.216 56.416L3.072 45.952H10.144L8.448 55.52C8.40533 55.8613 8.384 56.096 8.384 56.224C8.384 56.8853 8.56533 57.3973 8.928 57.76C9.312 58.1227 9.83467 58.304 10.496 58.304C11.264 58.304 11.9147 58.0587 12.448 57.568C12.9813 57.0773 13.3333 56.4053 13.504 55.552L15.2 45.952H22.304ZM38.1525 45.824C39.9018 45.824 41.2458 46.336 42.1845 47.36C43.1232 48.3627 43.5925 49.7493 43.5925 51.52C43.5925 52.16 43.5285 52.832 43.4005 53.536L41.5445 64H34.4725L36.1685 54.432C36.2112 54.0907 36.2325 53.856 36.2325 53.728C36.2325 53.0667 36.0405 52.5547 35.6565 52.192C35.2938 51.8293 34.7818 51.648 34.1205 51.648C33.3525 51.648 32.7018 51.8933 32.1685 52.384C31.6352 52.8747 31.2832 53.5467 31.1125 54.4L29.4165 64H22.3125L25.5125 45.952H32.6165L32.1365 48.672C32.8405 47.8187 33.7045 47.136 34.7285 46.624C35.7525 46.0907 36.8938 45.824 38.1525 45.824ZM54.609 38.304L52.849 45.824H48.113L49.009 38.304H54.609ZM61.6378 64.224C60.0378 64.224 58.6298 63.9147 57.4138 63.296C56.1978 62.6773 55.2484 61.8027 54.5658 60.672C53.8831 59.52 53.5418 58.1867 53.5418 56.672C53.5418 54.5813 54.0324 52.704 55.0138 51.04C56.0164 49.376 57.3818 48.0747 59.1098 47.136C60.8378 46.1973 62.7684 45.728 64.9018 45.728C66.5018 45.728 67.9098 46.048 69.1258 46.688C70.3418 47.3067 71.2911 48.192 71.9738 49.344C72.6564 50.4747 72.9978 51.7973 72.9978 53.312C72.9978 55.4027 72.5071 57.28 71.5258 58.944C70.5444 60.608 69.1898 61.9093 67.4618 62.848C65.7338 63.7653 63.7924 64.224 61.6378 64.224ZM62.7258 58.08C63.6431 58.08 64.3684 57.664 64.9018 56.832C65.4351 56 65.7018 55.072 65.7018 54.048C65.7018 53.3227 65.5204 52.7787 65.1578 52.416C64.8164 52.0533 64.3684 51.872 63.8138 51.872C62.8964 51.872 62.1711 52.288 61.6378 53.12C61.1044 53.952 60.8378 54.88 60.8378 55.904C60.8378 56.6293 61.0084 57.1733 61.3498 57.536C61.6911 57.8987 62.1498 58.08 62.7258 58.08ZM83.1655 49.28C84.0828 48.2347 85.1068 47.4027 86.2375 46.784C87.3895 46.144 88.5308 45.824 89.6615 45.824L88.3495 53.408H86.3335C84.9895 53.408 83.9548 53.6427 83.2295 54.112C82.5255 54.5813 82.0668 55.4133 81.8535 56.608L80.5415 64H73.4375L76.6375 45.952H83.7415L83.1655 49.28ZM89.015 54.976C89.3563 53.0773 89.975 51.4347 90.871 50.048C91.767 48.64 92.8443 47.5733 94.103 46.848C95.3617 46.1013 96.695 45.728 98.103 45.728C99.2763 45.728 100.247 45.9733 101.015 46.464C101.783 46.9333 102.316 47.584 102.615 48.416L103.063 45.952H110.135L106.935 64H99.863L100.311 61.536C99.7137 62.368 98.9457 63.0293 98.007 63.52C97.0683 63.9893 96.0123 64.224 94.839 64.224C93.0257 64.224 91.5643 63.616 90.455 62.4C89.3457 61.184 88.791 59.4987 88.791 57.344C88.791 56.5333 88.8657 55.744 89.015 54.976ZM101.463 54.976C101.506 54.784 101.527 54.528 101.527 54.208C101.527 53.4827 101.335 52.928 100.951 52.544C100.567 52.1387 100.044 51.936 99.383 51.936C98.615 51.936 97.9323 52.2027 97.335 52.736C96.759 53.2693 96.3857 54.016 96.215 54.976C96.1723 55.168 96.151 55.424 96.151 55.744C96.151 56.4693 96.343 57.0347 96.727 57.44C97.111 57.824 97.6337 58.016 98.295 58.016C99.063 58.016 99.735 57.7493 100.311 57.216C100.908 56.6827 101.292 55.936 101.463 54.976Z"/>
</mask>
<path d="M22.304 45.952L19.104 64H12L12.48 61.28C11.776 62.1333 10.912 62.8267 9.888 63.36C8.864 63.872 7.72267 64.128 6.464 64.128C4.71467 64.128 3.37067 63.6267 2.432 62.624C1.49333 61.6 1.024 60.2027 1.024 58.432C1.024 57.792 1.088 57.12 1.216 56.416L3.072 45.952H10.144L8.448 55.52C8.40533 55.8613 8.384 56.096 8.384 56.224C8.384 56.8853 8.56533 57.3973 8.928 57.76C9.312 58.1227 9.83467 58.304 10.496 58.304C11.264 58.304 11.9147 58.0587 12.448 57.568C12.9813 57.0773 13.3333 56.4053 13.504 55.552L15.2 45.952H22.304ZM38.1525 45.824C39.9018 45.824 41.2458 46.336 42.1845 47.36C43.1232 48.3627 43.5925 49.7493 43.5925 51.52C43.5925 52.16 43.5285 52.832 43.4005 53.536L41.5445 64H34.4725L36.1685 54.432C36.2112 54.0907 36.2325 53.856 36.2325 53.728C36.2325 53.0667 36.0405 52.5547 35.6565 52.192C35.2938 51.8293 34.7818 51.648 34.1205 51.648C33.3525 51.648 32.7018 51.8933 32.1685 52.384C31.6352 52.8747 31.2832 53.5467 31.1125 54.4L29.4165 64H22.3125L25.5125 45.952H32.6165L32.1365 48.672C32.8405 47.8187 33.7045 47.136 34.7285 46.624C35.7525 46.0907 36.8938 45.824 38.1525 45.824ZM54.609 38.304L52.849 45.824H48.113L49.009 38.304H54.609ZM61.6378 64.224C60.0378 64.224 58.6298 63.9147 57.4138 63.296C56.1978 62.6773 55.2484 61.8027 54.5658 60.672C53.8831 59.52 53.5418 58.1867 53.5418 56.672C53.5418 54.5813 54.0324 52.704 55.0138 51.04C56.0164 49.376 57.3818 48.0747 59.1098 47.136C60.8378 46.1973 62.7684 45.728 64.9018 45.728C66.5018 45.728 67.9098 46.048 69.1258 46.688C70.3418 47.3067 71.2911 48.192 71.9738 49.344C72.6564 50.4747 72.9978 51.7973 72.9978 53.312C72.9978 55.4027 72.5071 57.28 71.5258 58.944C70.5444 60.608 69.1898 61.9093 67.4618 62.848C65.7338 63.7653 63.7924 64.224 61.6378 64.224ZM62.7258 58.08C63.6431 58.08 64.3684 57.664 64.9018 56.832C65.4351 56 65.7018 55.072 65.7018 54.048C65.7018 53.3227 65.5204 52.7787 65.1578 52.416C64.8164 52.0533 64.3684 51.872 63.8138 51.872C62.8964 51.872 62.1711 52.288 61.6378 53.12C61.1044 53.952 60.8378 54.88 60.8378 55.904C60.8378 56.6293 61.0084 57.1733 61.3498 57.536C61.6911 57.8987 62.1498 58.08 62.7258 58.08ZM83.1655 49.28C84.0828 48.2347 85.1068 47.4027 86.2375 46.784C87.3895 46.144 88.5308 45.824 89.6615 45.824L88.3495 53.408H86.3335C84.9895 53.408 83.9548 53.6427 83.2295 54.112C82.5255 54.5813 82.0668 55.4133 81.8535 56.608L80.5415 64H73.4375L76.6375 45.952H83.7415L83.1655 49.28ZM89.015 54.976C89.3563 53.0773 89.975 51.4347 90.871 50.048C91.767 48.64 92.8443 47.5733 94.103 46.848C95.3617 46.1013 96.695 45.728 98.103 45.728C99.2763 45.728 100.247 45.9733 101.015 46.464C101.783 46.9333 102.316 47.584 102.615 48.416L103.063 45.952H110.135L106.935 64H99.863L100.311 61.536C99.7137 62.368 98.9457 63.0293 98.007 63.52C97.0683 63.9893 96.0123 64.224 94.839 64.224C93.0257 64.224 91.5643 63.616 90.455 62.4C89.3457 61.184 88.791 59.4987 88.791 57.344C88.791 56.5333 88.8657 55.744 89.015 54.976ZM101.463 54.976C101.506 54.784 101.527 54.528 101.527 54.208C101.527 53.4827 101.335 52.928 100.951 52.544C100.567 52.1387 100.044 51.936 99.383 51.936C98.615 51.936 97.9323 52.2027 97.335 52.736C96.759 53.2693 96.3857 54.016 96.215 54.976C96.1723 55.168 96.151 55.424 96.151 55.744C96.151 56.4693 96.343 57.0347 96.727 57.44C97.111 57.824 97.6337 58.016 98.295 58.016C99.063 58.016 99.735 57.7493 100.311 57.216C100.908 56.6827 101.292 55.936 101.463 54.976Z" fill="#FFE5EC"/>
<path d="M22.304 45.952L23.2886 46.1266L23.4969 44.952H22.304V45.952ZM19.104 64V65H19.9423L20.0886 64.1746L19.104 64ZM12 64L11.0152 63.8262L10.8081 65H12V64ZM12.48 61.28L13.4648 61.4538L14.1245 57.7153L11.7086 60.6436L12.48 61.28ZM9.888 63.36L10.3352 64.2544L10.3426 64.2507L10.3499 64.2469L9.888 63.36ZM2.432 62.624L1.69481 63.2998L1.70198 63.3074L2.432 62.624ZM1.216 56.416L2.19988 56.5949L2.20063 56.5906L1.216 56.416ZM3.072 45.952V44.952H2.23376L2.08737 45.7774L3.072 45.952ZM10.144 45.952L11.1287 46.1265L11.3368 44.952H10.144V45.952ZM8.448 55.52L7.46335 55.3455L7.45889 55.3706L7.45572 55.396L8.448 55.52ZM8.928 57.76L8.22089 58.4671L8.23099 58.4772L8.24138 58.487L8.928 57.76ZM13.504 55.552L14.4846 55.7481L14.4868 55.7371L14.4888 55.726L13.504 55.552ZM15.2 45.952V44.952H14.3612L14.2153 45.778L15.2 45.952ZM21.3194 45.7774L18.1194 63.8254L20.0886 64.1746L23.2886 46.1266L21.3194 45.7774ZM19.104 63H12V65H19.104V63ZM12.9848 64.1738L13.4648 61.4538L11.4952 61.1062L11.0152 63.8262L12.9848 64.1738ZM11.7086 60.6436C11.0937 61.389 10.3365 61.9989 9.42607 62.4731L10.3499 64.2469C11.4875 63.6544 12.4583 62.8776 13.2514 61.9164L11.7086 60.6436ZM9.44079 62.4656C8.56901 62.9015 7.5831 63.128 6.464 63.128V65.128C7.86224 65.128 9.15899 64.8425 10.3352 64.2544L9.44079 62.4656ZM6.464 63.128C4.91102 63.128 3.86296 62.6893 3.16202 61.9406L1.70198 63.3074C2.87837 64.564 4.51832 65.128 6.464 65.128V63.128ZM3.16915 61.9483C2.44217 61.1552 2.024 60.0236 2.024 58.432H0.024C0.024 60.3817 0.544499 62.0448 1.69485 63.2997L3.16915 61.9483ZM2.024 58.432C2.024 57.8585 2.08136 57.2467 2.19987 56.5949L0.23213 56.2371C0.0946354 56.9933 0.024 57.7255 0.024 58.432H2.024ZM2.20063 56.5906L4.05663 46.1266L2.08737 45.7774L0.231368 56.2414L2.20063 56.5906ZM3.072 46.952H10.144V44.952H3.072V46.952ZM9.15935 45.7775L7.46335 55.3455L9.43265 55.6945L11.1287 46.1265L9.15935 45.7775ZM7.45572 55.396C7.41371 55.7321 7.384 56.0252 7.384 56.224H9.384C9.384 56.1668 9.39696 55.9906 9.44028 55.644L7.45572 55.396ZM7.384 56.224C7.384 57.0703 7.6207 57.8669 8.22089 58.4671L9.63511 57.0529C9.50997 56.9278 9.384 56.7004 9.384 56.224H7.384ZM8.24138 58.487C8.85479 59.0663 9.64669 59.304 10.496 59.304V57.304C10.0226 57.304 9.76921 57.179 9.61462 57.033L8.24138 58.487ZM10.496 59.304C11.4984 59.304 12.3954 58.9752 13.1251 58.3039L11.7709 56.8321C11.4339 57.1421 11.0296 57.304 10.496 57.304V59.304ZM13.1251 58.3039C13.8434 57.6431 14.281 56.7663 14.4846 55.7481L12.5234 55.3559C12.3857 56.0444 12.1193 56.5116 11.7709 56.8321L13.1251 58.3039ZM14.4888 55.726L16.1848 46.126L14.2153 45.778L12.5193 55.378L14.4888 55.726ZM15.2 46.952H22.304V44.952H15.2V46.952ZM42.1845 47.36L41.4473 48.0358L41.4545 48.0434L42.1845 47.36ZM43.4005 53.536L42.4166 53.3571L42.4159 53.3614L43.4005 53.536ZM41.5445 64V65H42.3827L42.5291 64.1746L41.5445 64ZM34.4725 64L33.4879 63.8255L33.2797 65H34.4725V64ZM36.1685 54.432L37.1532 54.6065L37.1576 54.5814L37.1608 54.556L36.1685 54.432ZM35.6565 52.192L34.9494 52.8991L34.9595 52.9092L34.9699 52.919L35.6565 52.192ZM32.1685 52.384L32.8456 53.1199L32.8456 53.1199L32.1685 52.384ZM31.1125 54.4L30.1319 54.2039L30.1297 54.2149L30.1277 54.226L31.1125 54.4ZM29.4165 64V65H30.2553L30.4013 64.174L29.4165 64ZM22.3125 64L21.3279 63.8254L21.1196 65H22.3125V64ZM25.5125 45.952V44.952H24.6742L24.5279 45.7774L25.5125 45.952ZM32.6165 45.952L33.6013 46.1258L33.8084 44.952H32.6165V45.952ZM32.1365 48.672L31.1517 48.4982L30.492 52.2367L32.9079 49.3084L32.1365 48.672ZM34.7285 46.624L35.1757 47.5184L35.1831 47.5147L35.1904 47.5109L34.7285 46.624ZM38.1525 46.824C39.6992 46.824 40.7449 47.2694 41.4473 48.0357L42.9217 46.6843C41.7468 45.4026 40.1045 44.824 38.1525 44.824V46.824ZM41.4545 48.0434C42.1739 48.8119 42.5925 49.9272 42.5925 51.52H44.5925C44.5925 49.5715 44.0724 47.9134 42.9145 46.6766L41.4545 48.0434ZM42.5925 51.52C42.5925 52.0935 42.5351 52.7053 42.4166 53.3571L44.3844 53.7149C44.5219 52.9587 44.5925 52.2265 44.5925 51.52H42.5925ZM42.4159 53.3614L40.5599 63.8254L42.5291 64.1746L44.3851 53.7106L42.4159 53.3614ZM41.5445 63H34.4725V65H41.5445V63ZM35.4572 64.1745L37.1532 54.6065L35.1839 54.2575L33.4879 63.8255L35.4572 64.1745ZM37.1608 54.556C37.2028 54.2199 37.2325 53.9268 37.2325 53.728H35.2325C35.2325 53.7852 35.2195 53.9614 35.1762 54.308L37.1608 54.556ZM37.2325 53.728C37.2325 52.8654 36.9752 52.0619 36.3431 51.465L34.9699 52.919C35.1058 53.0474 35.2325 53.2679 35.2325 53.728H37.2325ZM36.3636 51.4849C35.7634 50.8847 34.9668 50.648 34.1205 50.648V52.648C34.5969 52.648 34.8243 52.774 34.9494 52.8991L36.3636 51.4849ZM34.1205 50.648C33.1181 50.648 32.2211 50.9768 31.4914 51.6481L32.8456 53.1199C33.1826 52.8099 33.5869 52.648 34.1205 52.648V50.648ZM31.4914 51.6481C30.7731 52.3089 30.3356 53.1857 30.1319 54.2039L32.0931 54.5961C32.2308 53.9076 32.4972 53.4404 32.8456 53.1199L31.4914 51.6481ZM30.1277 54.226L28.4318 63.826L30.4013 64.174L32.0973 54.574L30.1277 54.226ZM29.4165 63H22.3125V65H29.4165V63ZM23.2971 64.1746L26.4971 46.1266L24.5279 45.7774L21.3279 63.8254L23.2971 64.1746ZM25.5125 46.952H32.6165V44.952H25.5125V46.952ZM31.6317 45.7782L31.1517 48.4982L33.1213 48.8458L33.6013 46.1258L31.6317 45.7782ZM32.9079 49.3084C33.5199 48.5665 34.2721 47.9702 35.1757 47.5184L34.2813 45.7296C33.1369 46.3018 32.1611 47.0708 31.3651 48.0356L32.9079 49.3084ZM35.1904 47.5109C36.0592 47.0584 37.0399 46.824 38.1525 46.824V44.824C36.7478 44.824 35.4458 45.1229 34.2666 45.7371L35.1904 47.5109ZM54.609 38.304L55.5827 38.5319L55.8701 37.304H54.609V38.304ZM52.849 45.824V46.824H53.642L53.8227 46.0519L52.849 45.824ZM48.113 45.824L47.12 45.7057L46.9868 46.824H48.113V45.824ZM49.009 38.304V37.304H48.1211L48.016 38.1857L49.009 38.304ZM53.6353 38.0761L51.8753 45.5961L53.8227 46.0519L55.5827 38.5319L53.6353 38.0761ZM52.849 44.824H48.113V46.824H52.849V44.824ZM49.106 45.9423L50.002 38.4223L48.016 38.1857L47.12 45.7057L49.106 45.9423ZM49.009 39.304H54.609V37.304H49.009V39.304ZM57.4138 63.296L57.8672 62.4047L57.8672 62.4047L57.4138 63.296ZM54.5658 60.672L53.7054 61.1818L53.7097 61.1889L54.5658 60.672ZM55.0138 51.04L54.1572 50.5239L54.1524 50.532L55.0138 51.04ZM59.1098 47.136L59.5871 48.0147L59.5871 48.0147L59.1098 47.136ZM69.1258 46.688L68.66 47.573L68.6723 47.5793L69.1258 46.688ZM71.9738 49.344L71.1134 49.8538L71.1177 49.8609L71.9738 49.344ZM71.5258 58.944L72.3871 59.452L72.3871 59.452L71.5258 58.944ZM67.4618 62.848L67.9307 63.7313L67.9391 63.7267L67.4618 62.848ZM65.1578 52.416L64.4295 53.1014L64.4399 53.1124L64.4506 53.1231L65.1578 52.416ZM61.6378 53.12L62.4796 53.6597L62.4796 53.6597L61.6378 53.12ZM61.6378 63.224C60.1682 63.224 58.9204 62.9405 57.8672 62.4047L56.9603 64.1873C58.3391 64.8888 59.9073 65.224 61.6378 65.224V63.224ZM57.8672 62.4047C56.812 61.8678 56.0046 61.1204 55.4218 60.1551L53.7097 61.1889C54.4922 62.485 55.5835 63.4868 56.9603 64.1873L57.8672 62.4047ZM55.426 60.1622C54.8463 59.184 54.5418 58.0313 54.5418 56.672H52.5418C52.5418 58.342 52.9198 59.856 53.7055 61.1818L55.426 60.1622ZM54.5418 56.672C54.5418 54.7448 54.992 53.0455 55.8751 51.548L54.1524 50.532C53.0729 52.3625 52.5418 54.4178 52.5418 56.672H54.5418ZM55.8703 51.5561C56.7799 50.0465 58.0135 48.8695 59.5871 48.0147L58.6324 46.2573C56.75 47.2798 55.2529 48.7055 54.1572 50.5239L55.8703 51.5561ZM59.5871 48.0147C61.1563 47.1623 62.9206 46.728 64.9018 46.728V44.728C62.6162 44.728 60.5192 45.2324 58.6324 46.2573L59.5871 48.0147ZM64.9018 46.728C66.3662 46.728 67.6096 47.02 68.66 47.5729L69.5915 45.8031C68.21 45.076 66.6373 44.728 64.9018 44.728V46.728ZM68.6723 47.5793C69.7226 48.1137 70.5294 48.8682 71.1135 49.8538L72.834 48.8342C72.0528 47.5158 70.9609 46.4997 69.5792 45.7967L68.6723 47.5793ZM71.1177 49.8609C71.693 50.8138 71.9978 51.9523 71.9978 53.312H73.9978C73.9978 51.6424 73.6198 50.1355 72.8298 48.8271L71.1177 49.8609ZM71.9978 53.312C71.9978 55.2392 71.5475 56.9385 70.6644 58.436L72.3871 59.452C73.4666 57.6215 73.9978 55.5662 73.9978 53.312H71.9978ZM70.6644 58.436C69.7768 59.941 68.5562 61.1155 66.9844 61.9693L67.9391 63.7267C69.8233 62.7032 71.312 61.275 72.3871 59.452L70.6644 58.436ZM66.9929 61.9647C65.4235 62.7979 63.6458 63.224 61.6378 63.224V65.224C63.939 65.224 66.044 64.7328 67.9306 63.7313L66.9929 61.9647ZM62.7258 59.08C64.0142 59.08 65.0434 58.464 65.7436 57.3717L64.0599 56.2923C63.6934 56.864 63.272 57.08 62.7258 57.08V59.08ZM65.7436 57.3717C66.3841 56.3726 66.7018 55.256 66.7018 54.048H64.7018C64.7018 54.888 64.4861 55.6274 64.0599 56.2923L65.7436 57.3717ZM66.7018 54.048C66.7018 53.1685 66.4812 52.3252 65.8649 51.7089L64.4506 53.1231C64.5596 53.2321 64.7018 53.4768 64.7018 54.048H66.7018ZM65.886 51.7306C65.3331 51.1433 64.6095 50.872 63.8138 50.872V52.872C64.1273 52.872 64.2997 52.9634 64.4295 53.1014L65.886 51.7306ZM63.8138 50.872C62.5253 50.872 61.4961 51.488 60.7959 52.5803L62.4796 53.6597C62.8461 53.088 63.2675 52.872 63.8138 52.872V50.872ZM60.7959 52.5803C60.1554 53.5794 59.8378 54.696 59.8378 55.904H61.8378C61.8378 55.064 62.0534 54.3246 62.4796 53.6597L60.7959 52.5803ZM59.8378 55.904C59.8378 56.7689 60.0401 57.6036 60.6216 58.2214L62.078 56.8506C61.9767 56.7431 61.8378 56.4898 61.8378 55.904H59.8378ZM60.6216 58.2214C61.1819 58.8168 61.9212 59.08 62.7258 59.08V57.08C62.3783 57.08 62.2002 56.9806 62.078 56.8506L60.6216 58.2214ZM83.1655 49.28L82.1802 49.1095L81.5744 52.6092L83.9171 49.9396L83.1655 49.28ZM86.2375 46.784L86.7175 47.6613L86.7231 47.6582L86.2375 46.784ZM89.6615 45.824L90.6469 45.9945L90.8494 44.824H89.6615V45.824ZM88.3495 53.408V54.408H89.1914L89.3349 53.5785L88.3495 53.408ZM83.2295 54.112L82.6862 53.2724L82.6748 53.2799L83.2295 54.112ZM81.8535 56.608L80.8691 56.4322L80.8689 56.4332L81.8535 56.608ZM80.5415 64V65H81.3796L81.5261 64.1748L80.5415 64ZM73.4375 64L72.4529 63.8254L72.2446 65H73.4375V64ZM76.6375 45.952V44.952H75.7992L75.6529 45.7774L76.6375 45.952ZM83.7415 45.952L84.7269 46.1225L84.9294 44.952H83.7415V45.952ZM83.9171 49.9396C84.7635 48.9752 85.6972 48.2195 86.7175 47.6613L85.7575 45.9067C84.5164 46.5858 83.4022 47.4942 82.4139 48.6204L83.9171 49.9396ZM86.7231 47.6582C87.7513 47.0869 88.727 46.824 89.6615 46.824V44.824C88.3347 44.824 87.0277 45.2011 85.7519 45.9098L86.7231 47.6582ZM88.6761 45.6535L87.3641 53.2375L89.3349 53.5785L90.6469 45.9945L88.6761 45.6535ZM88.3495 52.408H86.3335V54.408H88.3495V52.408ZM86.3335 52.408C84.8955 52.408 83.6401 52.6552 82.6862 53.2724L83.7728 54.9516C84.2696 54.6301 85.0835 54.408 86.3335 54.408V52.408ZM82.6748 53.2799C81.6608 53.9559 81.1092 55.0873 80.8691 56.4322L82.8379 56.7838C83.0244 55.7394 83.3902 55.2067 83.7842 54.944L82.6748 53.2799ZM80.8689 56.4332L79.5569 63.8252L81.5261 64.1748L82.8381 56.7828L80.8689 56.4332ZM80.5415 63H73.4375V65H80.5415V63ZM74.4221 64.1746L77.6221 46.1266L75.6529 45.7774L72.4529 63.8254L74.4221 64.1746ZM76.6375 46.952H83.7415V44.952H76.6375V46.952ZM82.7562 45.7815L82.1802 49.1095L84.1509 49.4505L84.7269 46.1225L82.7562 45.7815ZM89.015 54.976L89.9966 55.1669L89.998 55.1599L89.9992 55.1529L89.015 54.976ZM90.871 50.048L91.7109 50.5907L91.7147 50.5849L90.871 50.048ZM94.103 46.848L94.6023 47.7145L94.6132 47.7081L94.103 46.848ZM101.015 46.464L100.477 47.3067L100.485 47.3121L100.494 47.3173L101.015 46.464ZM102.615 48.416L101.674 48.7539L102.932 52.2601L103.599 48.5949L102.615 48.416ZM103.063 45.952V44.952H102.228L102.079 45.7731L103.063 45.952ZM110.135 45.952L111.12 46.1266L111.328 44.952H110.135V45.952ZM106.935 64V65H107.773L107.92 64.1746L106.935 64ZM99.863 64L98.8791 63.8211L98.6648 65H99.863V64ZM100.311 61.536L101.295 61.7149L99.4987 60.9528L100.311 61.536ZM98.007 63.52L98.4542 64.4144L98.4623 64.4104L98.4703 64.4062L98.007 63.52ZM90.455 62.4L89.7162 63.074L89.7162 63.074L90.455 62.4ZM101.463 54.976L100.487 54.7591L100.482 54.7799L100.478 54.801L101.463 54.976ZM100.951 52.544L100.225 53.2317L100.234 53.2416L100.244 53.2511L100.951 52.544ZM97.335 52.736L96.669 51.9901L96.6622 51.9961L96.6556 52.0022L97.335 52.736ZM96.215 54.976L97.1912 55.1929L97.1958 55.1721L97.1996 55.151L96.215 54.976ZM96.727 57.44L96.001 58.1277L96.0103 58.1376L96.0199 58.1471L96.727 57.44ZM100.311 57.216L99.645 56.4701L99.6382 56.4761L99.6316 56.4822L100.311 57.216ZM89.9992 55.1529C90.321 53.3629 90.8978 51.8491 91.7109 50.5907L90.0311 49.5053C89.0522 51.0202 88.3916 52.7918 88.0308 54.7991L89.9992 55.1529ZM91.7147 50.5849C92.5371 49.2925 93.5028 48.348 94.6023 47.7144L93.6037 45.9816C92.1858 46.7986 90.9969 47.9875 90.0273 49.5111L91.7147 50.5849ZM94.6132 47.7081C95.7238 47.0492 96.8818 46.728 98.103 46.728V44.728C96.5082 44.728 94.9995 45.1534 93.5928 45.9879L94.6132 47.7081ZM98.103 46.728C99.1397 46.728 99.9096 46.9445 100.477 47.3067L101.553 45.6213C100.584 45.0022 99.413 44.728 98.103 44.728V46.728ZM100.494 47.3173C101.071 47.67 101.454 48.1407 101.674 48.7539L103.556 48.0781C103.179 47.0273 102.495 46.1966 101.536 45.6107L100.494 47.3173ZM103.599 48.5949L104.047 46.1309L102.079 45.7731L101.631 48.2371L103.599 48.5949ZM103.063 46.952H110.135V44.952H103.063V46.952ZM109.15 45.7774L105.95 63.8254L107.92 64.1746L111.12 46.1266L109.15 45.7774ZM106.935 63H99.863V65H106.935V63ZM100.847 64.1789L101.295 61.7149L99.3271 61.3571L98.8791 63.8211L100.847 64.1789ZM99.4987 60.9528C98.9956 61.6535 98.3489 62.2129 97.5437 62.6338L98.4703 64.4062C99.5425 63.8458 100.432 63.0825 101.123 62.1192L99.4987 60.9528ZM97.5598 62.6256C96.7756 63.0176 95.8756 63.224 94.839 63.224V65.224C96.1491 65.224 97.361 64.961 98.4542 64.4144L97.5598 62.6256ZM94.839 63.224C93.2749 63.224 92.0932 62.7119 91.1938 61.726L89.7162 63.074C91.0355 64.5201 92.7764 65.224 94.839 65.224V63.224ZM91.1938 61.726C90.2991 60.7453 89.791 59.3283 89.791 57.344H87.791C87.791 59.669 88.3922 61.6227 89.7162 63.074L91.1938 61.726ZM89.791 57.344C89.791 56.5951 89.8599 55.8698 89.9966 55.1669L88.0334 54.7851C87.8714 55.6182 87.791 56.4716 87.791 57.344H89.791ZM102.439 55.1929C102.504 54.8995 102.527 54.5616 102.527 54.208H100.527C100.527 54.4944 100.507 54.6685 100.487 54.7591L102.439 55.1929ZM102.527 54.208C102.527 53.3094 102.286 52.4647 101.658 51.8369L100.244 53.2511C100.384 53.3913 100.527 53.656 100.527 54.208H102.527ZM101.677 51.8563C101.069 51.215 100.264 50.936 99.383 50.936V52.936C99.8246 52.936 100.065 53.0624 100.225 53.2317L101.677 51.8563ZM99.383 50.936C98.3581 50.936 97.441 51.3008 96.669 51.9901L98.001 53.4819C98.4237 53.1046 98.8719 52.936 99.383 52.936V50.936ZM96.6556 52.0022C95.8843 52.7164 95.4298 53.6793 95.2304 54.801L97.1996 55.151C97.3415 54.3527 97.6337 53.8223 98.0144 53.4698L96.6556 52.0022ZM95.2388 54.7591C95.1736 55.0525 95.151 55.3904 95.151 55.744H97.151C97.151 55.4576 97.1711 55.2835 97.1912 55.1929L95.2388 54.7591ZM95.151 55.744C95.151 56.6461 95.3933 57.4862 96.001 58.1277L97.453 56.7523C97.2927 56.5831 97.151 56.2926 97.151 55.744H95.151ZM96.0199 58.1471C96.6309 58.7581 97.43 59.016 98.295 59.016V57.016C97.8373 57.016 97.5911 56.8899 97.4341 56.7329L96.0199 58.1471ZM98.295 59.016C99.321 59.016 100.234 58.6501 100.99 57.9498L99.6316 56.4822C99.2359 56.8486 98.805 57.016 98.295 57.016V59.016ZM100.977 57.9619C101.775 57.2491 102.246 56.2822 102.448 55.151L100.478 54.801C100.338 55.5898 100.041 56.1163 99.645 56.4701L100.977 57.9619Z" fill="#FF4D7C" mask="url(#path-2-outside-1_405_9)"/>
</g>
<g filter="url(#filter1_d_405_9)">
<mask id="path-4-outside-2_405_9" maskUnits="userSpaceOnUse" x="118" y="44" width="62" height="30" fill="black">
<rect fill="white" x="118" y="44" width="62" height="30"/>
<path d="M130.856 48.416C131.453 47.584 132.211 46.9333 133.128 46.464C134.067 45.9733 135.123 45.728 136.296 45.728C138.109 45.728 139.571 46.336 140.68 47.552C141.789 48.768 142.344 50.4533 142.344 52.608C142.344 53.4187 142.269 54.208 142.12 54.976C141.779 56.8747 141.16 58.528 140.264 59.936C139.368 61.3227 138.291 62.3893 137.032 63.136C135.773 63.8613 134.44 64.224 133.032 64.224C131.859 64.224 130.888 63.9893 130.12 63.52C129.373 63.0293 128.851 62.368 128.552 61.536L126.6 72.64H119.496L124.2 45.952H131.304L130.856 48.416ZM134.92 54.976C134.963 54.784 134.984 54.528 134.984 54.208C134.984 53.4827 134.792 52.928 134.408 52.544C134.024 52.1387 133.501 51.936 132.84 51.936C132.072 51.936 131.389 52.2027 130.792 52.736C130.216 53.2693 129.843 54.016 129.672 54.976C129.629 55.168 129.608 55.424 129.608 55.744C129.608 56.4693 129.8 57.0347 130.184 57.44C130.568 57.824 131.091 58.016 131.752 58.016C132.52 58.016 133.192 57.7493 133.768 57.216C134.365 56.6827 134.749 55.936 134.92 54.976ZM154.238 45.728C156.627 45.728 158.526 46.368 159.934 47.648C161.342 48.9067 162.046 50.6347 162.046 52.832C162.046 53.4507 161.982 54.112 161.854 54.816C161.705 55.52 161.587 55.9893 161.502 56.224H150.11C150.089 56.352 150.078 56.5333 150.078 56.768C150.078 57.9627 150.59 58.56 151.614 58.56C152.403 58.56 153.022 58.208 153.47 57.504H160.99C160.521 58.784 159.785 59.936 158.782 60.96C157.779 61.9627 156.595 62.7627 155.23 63.36C153.886 63.936 152.467 64.224 150.974 64.224C148.585 64.224 146.686 63.5947 145.278 62.336C143.891 61.056 143.198 59.2853 143.198 57.024C143.198 56.3627 143.262 55.68 143.39 54.976C143.731 53.0987 144.414 51.4667 145.438 50.08C146.462 48.672 147.731 47.5947 149.246 46.848C150.782 46.1013 152.446 45.728 154.238 45.728ZM154.91 53.312C154.931 53.2053 154.942 53.0453 154.942 52.832C154.942 52.32 154.782 51.936 154.462 51.68C154.142 51.424 153.737 51.296 153.246 51.296C151.966 51.296 151.102 51.968 150.654 53.312H154.91ZM172.197 49.28C173.114 48.2347 174.138 47.4027 175.269 46.784C176.421 46.144 177.562 45.824 178.693 45.824L177.381 53.408H175.365C174.021 53.408 172.986 53.6427 172.261 54.112C171.557 54.5813 171.098 55.4133 170.885 56.608L169.573 64H162.469L165.669 45.952H172.773L172.197 49.28Z"/>
</mask>
<path d="M130.856 48.416C131.453 47.584 132.211 46.9333 133.128 46.464C134.067 45.9733 135.123 45.728 136.296 45.728C138.109 45.728 139.571 46.336 140.68 47.552C141.789 48.768 142.344 50.4533 142.344 52.608C142.344 53.4187 142.269 54.208 142.12 54.976C141.779 56.8747 141.16 58.528 140.264 59.936C139.368 61.3227 138.291 62.3893 137.032 63.136C135.773 63.8613 134.44 64.224 133.032 64.224C131.859 64.224 130.888 63.9893 130.12 63.52C129.373 63.0293 128.851 62.368 128.552 61.536L126.6 72.64H119.496L124.2 45.952H131.304L130.856 48.416ZM134.92 54.976C134.963 54.784 134.984 54.528 134.984 54.208C134.984 53.4827 134.792 52.928 134.408 52.544C134.024 52.1387 133.501 51.936 132.84 51.936C132.072 51.936 131.389 52.2027 130.792 52.736C130.216 53.2693 129.843 54.016 129.672 54.976C129.629 55.168 129.608 55.424 129.608 55.744C129.608 56.4693 129.8 57.0347 130.184 57.44C130.568 57.824 131.091 58.016 131.752 58.016C132.52 58.016 133.192 57.7493 133.768 57.216C134.365 56.6827 134.749 55.936 134.92 54.976ZM154.238 45.728C156.627 45.728 158.526 46.368 159.934 47.648C161.342 48.9067 162.046 50.6347 162.046 52.832C162.046 53.4507 161.982 54.112 161.854 54.816C161.705 55.52 161.587 55.9893 161.502 56.224H150.11C150.089 56.352 150.078 56.5333 150.078 56.768C150.078 57.9627 150.59 58.56 151.614 58.56C152.403 58.56 153.022 58.208 153.47 57.504H160.99C160.521 58.784 159.785 59.936 158.782 60.96C157.779 61.9627 156.595 62.7627 155.23 63.36C153.886 63.936 152.467 64.224 150.974 64.224C148.585 64.224 146.686 63.5947 145.278 62.336C143.891 61.056 143.198 59.2853 143.198 57.024C143.198 56.3627 143.262 55.68 143.39 54.976C143.731 53.0987 144.414 51.4667 145.438 50.08C146.462 48.672 147.731 47.5947 149.246 46.848C150.782 46.1013 152.446 45.728 154.238 45.728ZM154.91 53.312C154.931 53.2053 154.942 53.0453 154.942 52.832C154.942 52.32 154.782 51.936 154.462 51.68C154.142 51.424 153.737 51.296 153.246 51.296C151.966 51.296 151.102 51.968 150.654 53.312H154.91ZM172.197 49.28C173.114 48.2347 174.138 47.4027 175.269 46.784C176.421 46.144 177.562 45.824 178.693 45.824L177.381 53.408H175.365C174.021 53.408 172.986 53.6427 172.261 54.112C171.557 54.5813 171.098 55.4133 170.885 56.608L169.573 64H162.469L165.669 45.952H172.773L172.197 49.28Z" fill="#FFE5EC"/>
<path d="M130.856 48.416L129.872 48.2371L131.668 48.9992L130.856 48.416ZM133.128 46.464L133.583 47.3543L133.591 47.3502L133.128 46.464ZM140.68 47.552L139.941 48.226L139.941 48.226L140.68 47.552ZM142.12 54.976L141.138 54.7851L141.137 54.7921L141.136 54.7991L142.12 54.976ZM140.264 59.936L141.104 60.4787L141.108 60.4729L140.264 59.936ZM137.032 63.136L137.531 64.0025L137.542 63.9961L137.032 63.136ZM130.12 63.52L129.571 64.3557L129.585 64.3647L129.599 64.3733L130.12 63.52ZM128.552 61.536L129.493 61.1981L128.22 57.6505L127.567 61.3629L128.552 61.536ZM126.6 72.64V73.64H127.44L127.585 72.8131L126.6 72.64ZM119.496 72.64L118.511 72.4664L118.304 73.64H119.496V72.64ZM124.2 45.952V44.952H123.361L123.215 45.7784L124.2 45.952ZM131.304 45.952L132.288 46.1309L132.502 44.952H131.304V45.952ZM134.92 54.976L133.944 54.7591L133.939 54.7799L133.935 54.801L134.92 54.976ZM134.408 52.544L133.682 53.2317L133.691 53.2416L133.701 53.2511L134.408 52.544ZM130.792 52.736L130.126 51.9901L130.119 51.9961L130.113 52.0022L130.792 52.736ZM129.672 54.976L130.648 55.1929L130.653 55.1721L130.657 55.151L129.672 54.976ZM130.184 57.44L129.458 58.1277L129.467 58.1376L129.477 58.1471L130.184 57.44ZM133.768 57.216L133.102 56.4701L133.095 56.4761L133.089 56.4822L133.768 57.216ZM131.668 48.9992C132.172 48.2973 132.807 47.7515 133.583 47.3542L132.673 45.5738C131.614 46.1151 130.734 46.8707 130.044 47.8328L131.668 48.9992ZM133.591 47.3502C134.372 46.9421 135.266 46.728 136.296 46.728V44.728C134.979 44.728 133.761 45.0046 132.665 45.5778L133.591 47.3502ZM136.296 46.728C137.86 46.728 139.042 47.2401 139.941 48.226L141.419 46.878C140.099 45.4319 138.359 44.728 136.296 44.728V46.728ZM139.941 48.226C140.836 49.2067 141.344 50.6237 141.344 52.608H143.344C143.344 50.283 142.743 48.3293 141.419 46.878L139.941 48.226ZM141.344 52.608C141.344 53.3569 141.275 54.0822 141.138 54.7851L143.102 55.1669C143.264 54.3338 143.344 53.4804 143.344 52.608H141.344ZM141.136 54.7991C140.814 56.5895 140.237 58.1166 139.42 59.3991L141.108 60.4729C142.083 58.9394 142.743 57.1598 143.104 55.1529L141.136 54.7991ZM139.424 59.3933C138.601 60.6669 137.631 61.6177 136.522 62.2759L137.542 63.9961C138.95 63.1609 140.135 61.9785 141.104 60.4787L139.424 59.3933ZM136.533 62.2696C135.421 62.9103 134.259 63.224 133.032 63.224V65.224C134.621 65.224 136.126 64.8124 137.531 64.0024L136.533 62.2696ZM133.032 63.224C131.988 63.224 131.212 63.0151 130.641 62.6667L129.599 64.3733C130.564 64.9636 131.729 65.224 133.032 65.224V63.224ZM130.669 62.6843C130.102 62.3113 129.718 61.8237 129.493 61.1981L127.611 61.8739C127.984 62.9123 128.645 63.7474 129.571 64.3557L130.669 62.6843ZM127.567 61.3629L125.615 72.4669L127.585 72.8131L129.537 61.7091L127.567 61.3629ZM126.6 71.64H119.496V73.64H126.6V71.64ZM120.481 72.8136L125.185 46.1256L123.215 45.7784L118.511 72.4664L120.481 72.8136ZM124.2 46.952H131.304V44.952H124.2V46.952ZM130.32 45.7731L129.872 48.2371L131.84 48.5949L132.288 46.1309L130.32 45.7731ZM135.896 55.1929C135.961 54.8995 135.984 54.5616 135.984 54.208H133.984C133.984 54.4944 133.964 54.6685 133.944 54.7591L135.896 55.1929ZM135.984 54.208C135.984 53.3094 135.743 52.4647 135.115 51.8369L133.701 53.2511C133.841 53.3913 133.984 53.656 133.984 54.208H135.984ZM135.134 51.8563C134.526 51.215 133.721 50.936 132.84 50.936V52.936C133.282 52.936 133.522 53.0624 133.682 53.2317L135.134 51.8563ZM132.84 50.936C131.815 50.936 130.898 51.3008 130.126 51.9901L131.458 53.4819C131.881 53.1046 132.329 52.936 132.84 52.936V50.936ZM130.113 52.0022C129.341 52.7164 128.887 53.6793 128.687 54.801L130.657 55.151C130.798 54.3527 131.091 53.8223 131.471 53.4698L130.113 52.0022ZM128.696 54.7591C128.631 55.0525 128.608 55.3904 128.608 55.744H130.608C130.608 55.4576 130.628 55.2835 130.648 55.1929L128.696 54.7591ZM128.608 55.744C128.608 56.6461 128.85 57.4862 129.458 58.1277L130.91 56.7523C130.75 56.5831 130.608 56.2926 130.608 55.744H128.608ZM129.477 58.1471C130.088 58.7581 130.887 59.016 131.752 59.016V57.016C131.294 57.016 131.048 56.8899 130.891 56.7329L129.477 58.1471ZM131.752 59.016C132.778 59.016 133.691 58.6501 134.447 57.9498L133.089 56.4822C132.693 56.8486 132.262 57.016 131.752 57.016V59.016ZM134.434 57.9619C135.232 57.2491 135.703 56.2822 135.905 55.151L133.935 54.801C133.795 55.5898 133.498 56.1163 133.102 56.4701L134.434 57.9619ZM159.934 47.648L159.261 48.388L159.268 48.3935L159.934 47.648ZM161.854 54.816L162.832 55.0235L162.835 55.0092L162.838 54.9949L161.854 54.816ZM161.502 56.224V57.224H162.202L162.442 56.5657L161.502 56.224ZM150.11 56.224V55.224H149.263L149.124 56.0596L150.11 56.224ZM153.47 57.504V56.504H152.921L152.626 56.9671L153.47 57.504ZM160.99 57.504L161.929 57.8483L162.422 56.504H160.99V57.504ZM158.782 60.96L159.489 61.6671L159.497 61.6596L158.782 60.96ZM155.23 63.36L155.624 64.2792L155.631 64.2762L155.23 63.36ZM145.278 62.336L144.6 63.0708L144.606 63.0762L144.612 63.0815L145.278 62.336ZM143.39 54.976L144.374 55.1549L144.374 55.1549L143.39 54.976ZM145.438 50.08L146.242 50.6741L146.247 50.6682L145.438 50.08ZM149.246 46.848L148.809 45.9486L148.804 45.9511L149.246 46.848ZM154.91 53.312V54.312H155.73L155.891 53.5081L154.91 53.312ZM154.462 51.68L155.087 50.8991L155.087 50.8991L154.462 51.68ZM150.654 53.312L149.705 52.9958L149.267 54.312H150.654V53.312ZM154.238 46.728C156.445 46.728 158.081 47.315 159.261 48.3879L160.607 46.9081C158.971 45.421 156.81 44.728 154.238 44.728V46.728ZM159.268 48.3935C160.428 49.4308 161.046 50.8681 161.046 52.832H163.046C163.046 50.4012 162.256 48.3825 160.6 46.9025L159.268 48.3935ZM161.046 52.832C161.046 53.3822 160.989 53.9832 160.87 54.6371L162.838 54.9949C162.975 54.2408 163.046 53.5191 163.046 52.832H161.046ZM160.876 54.6085C160.724 55.322 160.62 55.7237 160.562 55.8823L162.442 56.5657C162.555 56.255 162.685 55.718 162.832 55.0235L160.876 54.6085ZM161.502 55.224H150.11V57.224H161.502V55.224ZM149.124 56.0596C149.089 56.2688 149.078 56.5147 149.078 56.768H151.078C151.078 56.552 151.089 56.4352 151.096 56.3884L149.124 56.0596ZM149.078 56.768C149.078 57.485 149.228 58.2093 149.703 58.7628C150.202 59.3457 150.904 59.56 151.614 59.56V57.56C151.3 57.56 151.234 57.4756 151.221 57.4612C151.184 57.4173 151.078 57.2457 151.078 56.768H149.078ZM151.614 59.56C152.768 59.56 153.695 59.0135 154.314 58.0409L152.626 56.9671C152.349 57.4025 152.039 57.56 151.614 57.56V59.56ZM153.47 58.504H160.99V56.504H153.47V58.504ZM160.051 57.1597C159.633 58.2999 158.976 59.3323 158.067 60.2604L159.497 61.6596C160.593 60.5397 161.408 59.2681 161.929 57.8483L160.051 57.1597ZM158.075 60.2529C157.165 61.1629 156.086 61.8939 154.829 62.4438L155.631 64.2762C157.104 63.6314 158.394 62.7624 159.489 61.6671L158.075 60.2529ZM154.836 62.4409C153.619 62.9624 152.335 63.224 150.974 63.224V65.224C152.6 65.224 154.153 64.9096 155.624 64.2791L154.836 62.4409ZM150.974 63.224C148.763 63.224 147.124 62.6453 145.944 61.5905L144.612 63.0815C146.248 64.5441 148.406 65.224 150.974 65.224V63.224ZM145.956 61.6012C144.815 60.5477 144.198 59.0663 144.198 57.024H142.198C142.198 59.5044 142.968 61.5643 144.6 63.0708L145.956 61.6012ZM144.198 57.024C144.198 56.4273 144.256 55.8046 144.374 55.1549L142.406 54.7971C142.268 55.5554 142.198 56.298 142.198 57.024H144.198ZM144.374 55.1549C144.691 53.4116 145.319 51.9252 146.242 50.674L144.634 49.486C143.509 51.0081 142.772 52.7858 142.406 54.7971L144.374 55.1549ZM146.247 50.6682C147.178 49.3871 148.324 48.4177 149.688 47.7449L148.804 45.9511C147.139 46.7717 145.746 47.9569 144.629 49.4918L146.247 50.6682ZM149.683 47.7474C151.076 47.0702 152.59 46.728 154.238 46.728V44.728C152.302 44.728 150.488 45.1325 148.809 45.9486L149.683 47.7474ZM155.891 53.5081C155.932 53.3015 155.942 53.0612 155.942 52.832H153.942C153.942 52.9232 153.94 52.9935 153.936 53.0455C153.933 53.1003 153.929 53.1202 153.929 53.1159L155.891 53.5081ZM155.942 52.832C155.942 52.0993 155.702 51.3914 155.087 50.8991L153.837 52.4609C153.862 52.4806 153.942 52.5407 153.942 52.832H155.942ZM155.087 50.8991C154.556 50.4747 153.917 50.296 153.246 50.296V52.296C153.556 52.296 153.728 52.3733 153.837 52.4609L155.087 50.8991ZM153.246 50.296C152.423 50.296 151.66 50.5158 151.024 51.0106C150.396 51.4989 149.974 52.1911 149.705 52.9958L151.603 53.6282C151.782 53.0889 152.016 52.7731 152.252 52.5894C152.48 52.4122 152.789 52.296 153.246 52.296V50.296ZM150.654 54.312H154.91V52.312H150.654V54.312ZM172.197 49.28L171.211 49.1095L170.606 52.6092L172.948 49.9396L172.197 49.28ZM175.269 46.784L175.749 47.6613L175.754 47.6582L175.269 46.784ZM178.693 45.824L179.678 45.9945L179.881 44.824H178.693V45.824ZM177.381 53.408V54.408H178.223L178.366 53.5785L177.381 53.408ZM172.261 54.112L171.717 53.2724L171.706 53.2799L172.261 54.112ZM170.885 56.608L169.9 56.4322L169.9 56.4332L170.885 56.608ZM169.573 64V65H170.411L170.557 64.1748L169.573 64ZM162.469 64L161.484 63.8254L161.276 65H162.469V64ZM165.669 45.952V44.952H164.83L164.684 45.7774L165.669 45.952ZM172.773 45.952L173.758 46.1225L173.961 44.952H172.773V45.952ZM172.948 49.9396C173.795 48.9752 174.728 48.2195 175.749 47.6613L174.789 45.9067C173.548 46.5858 172.433 47.4942 171.445 48.6204L172.948 49.9396ZM175.754 47.6582C176.783 47.0869 177.758 46.824 178.693 46.824V44.824C177.366 44.824 176.059 45.2011 174.783 45.9098L175.754 47.6582ZM177.707 45.6535L176.395 53.2375L178.366 53.5785L179.678 45.9945L177.707 45.6535ZM177.381 52.408H175.365V54.408H177.381V52.408ZM175.365 52.408C173.927 52.408 172.671 52.6552 171.717 53.2724L172.804 54.9516C173.301 54.6301 174.115 54.408 175.365 54.408V52.408ZM171.706 53.2799C170.692 53.9559 170.14 55.0873 169.9 56.4322L171.869 56.7838C172.056 55.7394 172.421 55.2067 172.815 54.944L171.706 53.2799ZM169.9 56.4332L168.588 63.8252L170.557 64.1748L171.869 56.7828L169.9 56.4332ZM169.573 63H162.469V65H169.573V63ZM163.453 64.1746L166.653 46.1266L164.684 45.7774L161.484 63.8254L163.453 64.1746ZM165.669 46.952H172.773V44.952H165.669V46.952ZM171.787 45.7815L171.211 49.1095L173.182 49.4505L173.758 46.1225L171.787 45.7815Z" fill="#FF4D7C" mask="url(#path-4-outside-2_405_9)"/>
</g>
<g filter="url(#filter2_d_405_9)">
<mask id="path-6-outside-3_405_9" maskUnits="userSpaceOnUse" x="187" y="40" width="36" height="26" fill="black">
<rect fill="white" x="187" y="40" width="36" height="26"/>
<path d="M197.504 56.736C197.483 56.8213 197.472 56.928 197.472 57.056C197.472 57.6533 197.856 57.952 198.624 57.952H200.32L199.232 64H196.544C192.341 64 190.24 62.2187 190.24 58.656C190.24 58.016 190.304 57.3333 190.432 56.608L191.264 51.872H189.024L190.08 45.952H192.32L193.088 41.6H200.192L199.424 45.952H202.368L201.312 51.872H198.368L197.504 56.736ZM213.426 45.728C215.815 45.728 217.714 46.368 219.122 47.648C220.53 48.9067 221.234 50.6347 221.234 52.832C221.234 53.4507 221.17 54.112 221.042 54.816C220.892 55.52 220.775 55.9893 220.69 56.224H209.298C209.276 56.352 209.266 56.5333 209.266 56.768C209.266 57.9627 209.778 58.56 210.802 58.56C211.591 58.56 212.21 58.208 212.658 57.504H220.178C219.708 58.784 218.972 59.936 217.97 60.96C216.967 61.9627 215.783 62.7627 214.418 63.36C213.074 63.936 211.655 64.224 210.161 64.224C207.772 64.224 205.874 63.5947 204.466 62.336C203.079 61.056 202.386 59.2853 202.386 57.024C202.386 56.3627 202.45 55.68 202.578 54.976C202.919 53.0987 203.602 51.4667 204.626 50.08C205.65 48.672 206.919 47.5947 208.434 46.848C209.97 46.1013 211.634 45.728 213.426 45.728ZM214.098 53.312C214.119 53.2053 214.13 53.0453 214.13 52.832C214.13 52.32 213.97 51.936 213.65 51.68C213.33 51.424 212.924 51.296 212.434 51.296C211.154 51.296 210.29 51.968 209.842 53.312H214.098Z"/>
</mask>
<path d="M197.504 56.736C197.483 56.8213 197.472 56.928 197.472 57.056C197.472 57.6533 197.856 57.952 198.624 57.952H200.32L199.232 64H196.544C192.341 64 190.24 62.2187 190.24 58.656C190.24 58.016 190.304 57.3333 190.432 56.608L191.264 51.872H189.024L190.08 45.952H192.32L193.088 41.6H200.192L199.424 45.952H202.368L201.312 51.872H198.368L197.504 56.736ZM213.426 45.728C215.815 45.728 217.714 46.368 219.122 47.648C220.53 48.9067 221.234 50.6347 221.234 52.832C221.234 53.4507 221.17 54.112 221.042 54.816C220.892 55.52 220.775 55.9893 220.69 56.224H209.298C209.276 56.352 209.266 56.5333 209.266 56.768C209.266 57.9627 209.778 58.56 210.802 58.56C211.591 58.56 212.21 58.208 212.658 57.504H220.178C219.708 58.784 218.972 59.936 217.97 60.96C216.967 61.9627 215.783 62.7627 214.418 63.36C213.074 63.936 211.655 64.224 210.161 64.224C207.772 64.224 205.874 63.5947 204.466 62.336C203.079 61.056 202.386 59.2853 202.386 57.024C202.386 56.3627 202.45 55.68 202.578 54.976C202.919 53.0987 203.602 51.4667 204.626 50.08C205.65 48.672 206.919 47.5947 208.434 46.848C209.97 46.1013 211.634 45.728 213.426 45.728ZM214.098 53.312C214.119 53.2053 214.13 53.0453 214.13 52.832C214.13 52.32 213.97 51.936 213.65 51.68C213.33 51.424 212.924 51.296 212.434 51.296C211.154 51.296 210.29 51.968 209.842 53.312H214.098Z" fill="#FFE5EC"/>
<path d="M197.504 56.736L198.474 56.9785L198.483 56.945L198.489 56.9109L197.504 56.736ZM200.32 57.952L201.304 58.1291L201.516 56.952H200.32V57.952ZM199.232 64V65H200.068L200.216 64.1771L199.232 64ZM190.432 56.608L191.417 56.7818L191.417 56.781L190.432 56.608ZM191.264 51.872L192.249 52.045L192.455 50.872H191.264V51.872ZM189.024 51.872L188.04 51.6964L187.83 52.872H189.024V51.872ZM190.08 45.952V44.952H189.243L189.096 45.7764L190.08 45.952ZM192.32 45.952V46.952H193.159L193.305 46.1258L192.32 45.952ZM193.088 41.6V40.6H192.249L192.103 41.4262L193.088 41.6ZM200.192 41.6L201.177 41.7738L201.384 40.6H200.192V41.6ZM199.424 45.952L198.439 45.7782L198.232 46.952H199.424V45.952ZM202.368 45.952L203.352 46.1276L203.562 44.952H202.368V45.952ZM201.312 51.872V52.872H202.149L202.296 52.0476L201.312 51.872ZM198.368 51.872V50.872H197.53L197.383 51.6971L198.368 51.872ZM196.534 56.4935C196.486 56.6851 196.472 56.8797 196.472 57.056H198.472C198.472 57.0191 198.474 56.9942 198.475 56.9795C198.477 56.9644 198.477 56.9653 198.474 56.9785L196.534 56.4935ZM196.472 57.056C196.472 57.5853 196.655 58.1354 197.146 58.5174C197.589 58.8622 198.138 58.952 198.624 58.952V56.952C198.494 56.952 198.413 56.939 198.371 56.928C198.33 56.9174 198.341 56.9132 198.374 56.9386C198.39 56.9514 198.409 56.969 198.426 56.9912C198.443 57.0134 198.455 57.0353 198.463 57.0541C198.479 57.0913 198.472 57.0996 198.472 57.056H196.472ZM198.624 58.952H200.32V56.952H198.624V58.952ZM199.336 57.7749L198.248 63.8229L200.216 64.1771L201.304 58.1291L199.336 57.7749ZM199.232 63H196.544V65H199.232V63ZM196.544 63C194.56 63 193.259 62.5761 192.463 61.9012C191.698 61.2531 191.24 60.236 191.24 58.656H189.24C189.24 60.6387 189.833 62.2935 191.169 63.4268C192.475 64.5333 194.325 65 196.544 65V63ZM191.24 58.656C191.24 58.0822 191.297 57.4581 191.417 56.7818L189.447 56.4342C189.311 57.2085 189.24 57.9498 189.24 58.656H191.24ZM191.417 56.781L192.249 52.045L190.279 51.699L189.447 56.435L191.417 56.781ZM191.264 50.872H189.024V52.872H191.264V50.872ZM190.008 52.0476L191.064 46.1276L189.096 45.7764L188.04 51.6964L190.008 52.0476ZM190.08 46.952H192.32V44.952H190.08V46.952ZM193.305 46.1258L194.073 41.7738L192.103 41.4262L191.335 45.7782L193.305 46.1258ZM193.088 42.6H200.192V40.6H193.088V42.6ZM199.207 41.4262L198.439 45.7782L200.409 46.1258L201.177 41.7738L199.207 41.4262ZM199.424 46.952H202.368V44.952H199.424V46.952ZM201.384 45.7764L200.328 51.6964L202.296 52.0476L203.352 46.1276L201.384 45.7764ZM201.312 50.872H198.368V52.872H201.312V50.872ZM197.383 51.6971L196.519 56.5611L198.489 56.9109L199.353 52.0469L197.383 51.6971ZM219.122 47.648L218.449 48.388L218.455 48.3935L219.122 47.648ZM221.042 54.816L222.02 55.0235L222.023 55.0092L222.025 54.9949L221.042 54.816ZM220.69 56.224V57.224H221.39L221.629 56.5657L220.69 56.224ZM209.298 56.224V55.224H208.45L208.311 56.0596L209.298 56.224ZM212.658 57.504V56.504H212.109L211.814 56.9671L212.658 57.504ZM220.178 57.504L221.116 57.8483L221.609 56.504H220.178V57.504ZM217.97 60.96L218.677 61.6671L218.684 61.6596L217.97 60.96ZM214.418 63.36L214.811 64.2792L214.818 64.2762L214.418 63.36ZM204.466 62.336L203.787 63.0708L203.793 63.0762L203.799 63.0815L204.466 62.336ZM202.578 54.976L203.561 55.1549L203.561 55.1549L202.578 54.976ZM204.626 50.08L205.43 50.6741L205.434 50.6682L204.626 50.08ZM208.434 46.848L207.996 45.9486L207.991 45.9511L208.434 46.848ZM214.098 53.312V54.312H214.917L215.078 53.5081L214.098 53.312ZM213.65 51.68L214.274 50.8991L214.274 50.8991L213.65 51.68ZM209.842 53.312L208.893 52.9958L208.454 54.312H209.842V53.312ZM213.426 46.728C215.632 46.728 217.269 47.315 218.449 48.3879L219.794 46.9081C218.158 45.421 215.997 44.728 213.426 44.728V46.728ZM218.455 48.3935C219.615 49.4308 220.234 50.8681 220.234 52.832H222.234C222.234 50.4012 221.444 48.3825 219.788 46.9025L218.455 48.3935ZM220.234 52.832C220.234 53.3822 220.177 53.9832 220.058 54.6371L222.025 54.9949C222.162 54.2408 222.234 53.5191 222.234 52.832H220.234ZM220.063 54.6085C219.912 55.322 219.807 55.7237 219.75 55.8823L221.629 56.5657C221.742 56.255 221.872 55.718 222.02 55.0235L220.063 54.6085ZM220.69 55.224H209.298V57.224H220.69V55.224ZM208.311 56.0596C208.276 56.2688 208.266 56.5147 208.266 56.768H210.266C210.266 56.552 210.276 56.4352 210.284 56.3884L208.311 56.0596ZM208.266 56.768C208.266 57.485 208.416 58.2093 208.89 58.7628C209.39 59.3457 210.092 59.56 210.802 59.56V57.56C210.487 57.56 210.421 57.4756 210.409 57.4612C210.371 57.4173 210.266 57.2457 210.266 56.768H208.266ZM210.802 59.56C211.956 59.56 212.882 59.0135 213.501 58.0409L211.814 56.9671C211.537 57.4025 211.226 57.56 210.802 57.56V59.56ZM212.658 58.504H220.178V56.504H212.658V58.504ZM219.239 57.1597C218.821 58.2999 218.164 59.3323 217.255 60.2604L218.684 61.6596C219.781 60.5397 220.596 59.2681 221.116 57.8483L219.239 57.1597ZM217.262 60.2529C216.352 61.1629 215.274 61.8939 214.017 62.4438L214.818 64.2762C216.292 63.6314 217.581 62.7624 218.677 61.6671L217.262 60.2529ZM214.024 62.4409C212.807 62.9624 211.522 63.224 210.161 63.224V65.224C211.787 65.224 213.34 64.9096 214.811 64.2791L214.024 62.4409ZM210.161 63.224C207.951 63.224 206.312 62.6453 205.132 61.5905L203.799 63.0815C205.435 64.5441 207.594 65.224 210.161 65.224V63.224ZM205.144 61.6012C204.002 60.5477 203.386 59.0663 203.386 57.024H201.386C201.386 59.5044 202.155 61.5643 203.787 63.0708L205.144 61.6012ZM203.386 57.024C203.386 56.4273 203.443 55.8046 203.561 55.1549L201.594 54.7971C201.456 55.5554 201.386 56.298 201.386 57.024H203.386ZM203.561 55.1549C203.878 53.4116 204.506 51.9252 205.43 50.674L203.821 49.486C202.697 51.0081 201.959 52.7858 201.594 54.7971L203.561 55.1549ZM205.434 50.6682C206.366 49.3871 207.511 48.4177 208.876 47.7449L207.991 45.9511C206.327 46.7717 204.933 47.9569 203.817 49.4918L205.434 50.6682ZM208.871 47.7474C210.264 47.0702 211.777 46.728 213.426 46.728V44.728C211.49 44.728 209.675 45.1325 207.996 45.9486L208.871 47.7474ZM215.078 53.5081C215.119 53.3015 215.13 53.0612 215.13 52.832H213.13C213.13 52.9232 213.127 52.9935 213.124 53.0455C213.12 53.1003 213.116 53.1202 213.117 53.1159L215.078 53.5081ZM215.13 52.832C215.13 52.0993 214.889 51.3914 214.274 50.8991L213.025 52.4609C213.05 52.4806 213.13 52.5407 213.13 52.832H215.13ZM214.274 50.8991C213.744 50.4747 213.105 50.296 212.434 50.296V52.296C212.744 52.296 212.915 52.3733 213.025 52.4609L214.274 50.8991ZM212.434 50.296C211.61 50.296 210.848 50.5158 210.212 51.0106C209.584 51.4989 209.161 52.1911 208.893 52.9958L210.79 53.6282C210.97 53.0889 211.203 52.7731 211.439 52.5894C211.667 52.4122 211.977 52.296 212.434 52.296V50.296ZM209.842 54.312H214.098V52.312H209.842V54.312Z" fill="#FF4D7C" mask="url(#path-6-outside-3_405_9)"/>
</g>
<g filter="url(#filter3_d_405_9)">
<mask id="path-8-outside-4_405_9" maskUnits="userSpaceOnUse" x="51" y="1" width="139" height="30" fill="black">
<rect fill="white" x="51" y="1" width="139" height="30"/>
<path d="M63.112 11.976L62.632 14.792H69.672L68.712 20.136H61.672L61.096 23.336H69.096L68.104 29H53L57 6.344H72.104L71.112 11.976H63.112ZM79.0373 29.224C77.4586 29.224 76.0506 28.9893 74.8133 28.52C73.5973 28.0507 72.6373 27.4 71.9333 26.568C71.2506 25.7147 70.9093 24.744 70.9093 23.656C70.9093 23.2507 70.9306 22.952 70.9733 22.76H77.7893C77.7679 23.2933 77.9173 23.688 78.2373 23.944C78.5786 24.2 79.0373 24.328 79.6133 24.328C79.9759 24.328 80.2853 24.2427 80.5413 24.072C80.8186 23.9013 80.9573 23.6987 80.9573 23.464C80.9573 23.1227 80.7439 22.856 80.3173 22.664C79.8906 22.4507 79.1866 22.216 78.2053 21.96C76.9679 21.6187 75.9333 21.2667 75.1013 20.904C74.2906 20.5413 73.5759 20.008 72.9573 19.304C72.3599 18.5787 72.0613 17.64 72.0613 16.488C72.0613 15.4213 72.3813 14.4507 73.0213 13.576C73.6826 12.68 74.5999 11.9867 75.7733 11.496C76.9679 10.984 78.3439 10.728 79.9013 10.728C81.6079 10.728 83.0693 11.016 84.2853 11.592C85.5226 12.168 86.4506 12.9467 87.0693 13.928C87.6879 14.9093 87.9759 15.9973 87.9333 17.192H81.6293C81.6293 16.7013 81.4799 16.328 81.1813 16.072C80.8826 15.7947 80.4453 15.656 79.8693 15.656C79.5066 15.656 79.1973 15.7307 78.9413 15.88C78.7066 16.0293 78.5893 16.232 78.5893 16.488C78.5893 16.808 78.8026 17.0747 79.2292 17.288C79.6559 17.48 80.3813 17.736 81.4053 18.056C82.6639 18.4187 83.6986 18.7813 84.5093 19.144C85.3413 19.4853 86.0666 20.008 86.6853 20.712C87.3039 21.3947 87.6133 22.2693 87.6133 23.336C87.6133 25.192 86.8133 26.6427 85.2133 27.688C83.6346 28.712 81.5759 29.224 79.0373 29.224ZM98.8165 21.736C98.7952 21.8213 98.7845 21.928 98.7845 22.056C98.7845 22.6533 99.1685 22.952 99.9365 22.952H101.633L100.545 29H97.8565C93.6538 29 91.5525 27.2187 91.5525 23.656C91.5525 23.016 91.6165 22.3333 91.7445 21.608L92.5765 16.872H90.3365L91.3925 10.952H93.6325L94.4005 6.6H101.505L100.737 10.952H103.681L102.625 16.872H99.6805L98.8165 21.736ZM114.738 10.728C117.127 10.728 119.026 11.368 120.434 12.648C121.842 13.9067 122.546 15.6347 122.546 17.832C122.546 18.4507 122.482 19.112 122.354 19.816C122.205 20.52 122.087 20.9893 122.002 21.224H110.61C110.589 21.352 110.578 21.5333 110.578 21.768C110.578 22.9627 111.09 23.56 112.114 23.56C112.903 23.56 113.522 23.208 113.97 22.504H121.49C121.021 23.784 120.285 24.936 119.282 25.96C118.279 26.9627 117.095 27.7627 115.73 28.36C114.386 28.936 112.967 29.224 111.474 29.224C109.085 29.224 107.186 28.5947 105.778 27.336C104.391 26.056 103.698 24.2853 103.698 22.024C103.698 21.3627 103.762 20.68 103.89 19.976C104.231 18.0987 104.914 16.4667 105.938 15.08C106.962 13.672 108.231 12.5947 109.746 11.848C111.282 11.1013 112.946 10.728 114.738 10.728ZM115.41 18.312C115.431 18.2053 115.442 18.0453 115.442 17.832C115.442 17.32 115.282 16.936 114.962 16.68C114.642 16.424 114.237 16.296 113.746 16.296C112.466 16.296 111.602 16.968 111.154 18.312H115.41ZM132.473 21.736C132.451 21.8213 132.441 21.928 132.441 22.056C132.441 22.6533 132.825 22.952 133.593 22.952H135.289L134.201 29H131.513C127.31 29 125.209 27.2187 125.209 23.656C125.209 23.016 125.273 22.3333 125.401 21.608L126.233 16.872H123.993L125.049 10.952H127.289L128.057 6.6H135.161L134.393 10.952H137.337L136.281 16.872H133.337L132.473 21.736ZM143.946 9.512C142.837 9.512 141.962 9.24533 141.322 8.712C140.704 8.17867 140.394 7.48533 140.394 6.632C140.394 5.88533 140.597 5.192 141.002 4.552C141.408 3.912 141.973 3.41067 142.698 3.048C143.445 2.664 144.266 2.472 145.162 2.472C146.25 2.472 147.104 2.74933 147.722 3.304C148.362 3.83733 148.682 4.54133 148.682 5.416C148.682 6.16267 148.48 6.84533 148.074 7.464C147.669 8.08267 147.104 8.584 146.378 8.968C145.653 9.33067 144.842 9.512 143.946 9.512ZM147.21 10.952L144.01 29H136.906L140.106 10.952H147.21ZM147.859 19.976C148.2 18.0987 148.883 16.4667 149.907 15.08C150.931 13.672 152.2 12.5947 153.715 11.848C155.251 11.1013 156.915 10.728 158.707 10.728C161.053 10.728 162.909 11.3893 164.275 12.712C165.661 14.0347 166.365 15.8693 166.387 18.216H158.867C158.717 17.2773 158.248 16.808 157.459 16.808C156.883 16.808 156.381 17.0747 155.955 17.608C155.549 18.1413 155.251 18.9307 155.059 19.976C154.973 20.5733 154.931 20.968 154.931 21.16C154.931 21.8213 155.059 22.3227 155.315 22.664C155.571 22.984 155.923 23.144 156.371 23.144C157.181 23.144 157.8 22.6747 158.227 21.736H165.747C164.915 24.0827 163.571 25.9173 161.715 27.24C159.88 28.5627 157.789 29.224 155.443 29.224C153.053 29.224 151.155 28.5947 149.747 27.336C148.36 26.056 147.667 24.2853 147.667 22.024C147.667 21.3627 147.731 20.68 147.859 19.976ZM167.359 19.976C167.7 18.0773 168.319 16.4347 169.215 15.048C170.111 13.64 171.188 12.5733 172.447 11.848C173.705 11.1013 175.039 10.728 176.447 10.728C177.62 10.728 178.591 10.9733 179.359 11.464C180.127 11.9333 180.66 12.584 180.959 13.416L181.407 10.952H188.479L185.279 29H178.207L178.655 26.536C178.057 27.368 177.289 28.0293 176.351 28.52C175.412 28.9893 174.356 29.224 173.183 29.224C171.369 29.224 169.908 28.616 168.799 27.4C167.689 26.184 167.135 24.4987 167.135 22.344C167.135 21.5333 167.209 20.744 167.359 19.976ZM179.807 19.976C179.849 19.784 179.871 19.528 179.871 19.208C179.871 18.4827 179.679 17.928 179.295 17.544C178.911 17.1387 178.388 16.936 177.727 16.936C176.959 16.936 176.276 17.2027 175.679 17.736C175.103 18.2693 174.729 19.016 174.559 19.976C174.516 20.168 174.495 20.424 174.495 20.744C174.495 21.4693 174.687 22.0347 175.071 22.44C175.455 22.824 175.977 23.016 176.639 23.016C177.407 23.016 178.079 22.7493 178.655 22.216C179.252 21.6827 179.636 20.936 179.807 19.976Z"/>
</mask>
<path d="M63.112 11.976L62.632 14.792H69.672L68.712 20.136H61.672L61.096 23.336H69.096L68.104 29H53L57 6.344H72.104L71.112 11.976H63.112ZM79.0373 29.224C77.4586 29.224 76.0506 28.9893 74.8133 28.52C73.5973 28.0507 72.6373 27.4 71.9333 26.568C71.2506 25.7147 70.9093 24.744 70.9093 23.656C70.9093 23.2507 70.9306 22.952 70.9733 22.76H77.7893C77.7679 23.2933 77.9173 23.688 78.2373 23.944C78.5786 24.2 79.0373 24.328 79.6133 24.328C79.9759 24.328 80.2853 24.2427 80.5413 24.072C80.8186 23.9013 80.9573 23.6987 80.9573 23.464C80.9573 23.1227 80.7439 22.856 80.3173 22.664C79.8906 22.4507 79.1866 22.216 78.2053 21.96C76.9679 21.6187 75.9333 21.2667 75.1013 20.904C74.2906 20.5413 73.5759 20.008 72.9573 19.304C72.3599 18.5787 72.0613 17.64 72.0613 16.488C72.0613 15.4213 72.3813 14.4507 73.0213 13.576C73.6826 12.68 74.5999 11.9867 75.7733 11.496C76.9679 10.984 78.3439 10.728 79.9013 10.728C81.6079 10.728 83.0693 11.016 84.2853 11.592C85.5226 12.168 86.4506 12.9467 87.0693 13.928C87.6879 14.9093 87.9759 15.9973 87.9333 17.192H81.6293C81.6293 16.7013 81.4799 16.328 81.1813 16.072C80.8826 15.7947 80.4453 15.656 79.8693 15.656C79.5066 15.656 79.1973 15.7307 78.9413 15.88C78.7066 16.0293 78.5893 16.232 78.5893 16.488C78.5893 16.808 78.8026 17.0747 79.2292 17.288C79.6559 17.48 80.3813 17.736 81.4053 18.056C82.6639 18.4187 83.6986 18.7813 84.5093 19.144C85.3413 19.4853 86.0666 20.008 86.6853 20.712C87.3039 21.3947 87.6133 22.2693 87.6133 23.336C87.6133 25.192 86.8133 26.6427 85.2133 27.688C83.6346 28.712 81.5759 29.224 79.0373 29.224ZM98.8165 21.736C98.7952 21.8213 98.7845 21.928 98.7845 22.056C98.7845 22.6533 99.1685 22.952 99.9365 22.952H101.633L100.545 29H97.8565C93.6538 29 91.5525 27.2187 91.5525 23.656C91.5525 23.016 91.6165 22.3333 91.7445 21.608L92.5765 16.872H90.3365L91.3925 10.952H93.6325L94.4005 6.6H101.505L100.737 10.952H103.681L102.625 16.872H99.6805L98.8165 21.736ZM114.738 10.728C117.127 10.728 119.026 11.368 120.434 12.648C121.842 13.9067 122.546 15.6347 122.546 17.832C122.546 18.4507 122.482 19.112 122.354 19.816C122.205 20.52 122.087 20.9893 122.002 21.224H110.61C110.589 21.352 110.578 21.5333 110.578 21.768C110.578 22.9627 111.09 23.56 112.114 23.56C112.903 23.56 113.522 23.208 113.97 22.504H121.49C121.021 23.784 120.285 24.936 119.282 25.96C118.279 26.9627 117.095 27.7627 115.73 28.36C114.386 28.936 112.967 29.224 111.474 29.224C109.085 29.224 107.186 28.5947 105.778 27.336C104.391 26.056 103.698 24.2853 103.698 22.024C103.698 21.3627 103.762 20.68 103.89 19.976C104.231 18.0987 104.914 16.4667 105.938 15.08C106.962 13.672 108.231 12.5947 109.746 11.848C111.282 11.1013 112.946 10.728 114.738 10.728ZM115.41 18.312C115.431 18.2053 115.442 18.0453 115.442 17.832C115.442 17.32 115.282 16.936 114.962 16.68C114.642 16.424 114.237 16.296 113.746 16.296C112.466 16.296 111.602 16.968 111.154 18.312H115.41ZM132.473 21.736C132.451 21.8213 132.441 21.928 132.441 22.056C132.441 22.6533 132.825 22.952 133.593 22.952H135.289L134.201 29H131.513C127.31 29 125.209 27.2187 125.209 23.656C125.209 23.016 125.273 22.3333 125.401 21.608L126.233 16.872H123.993L125.049 10.952H127.289L128.057 6.6H135.161L134.393 10.952H137.337L136.281 16.872H133.337L132.473 21.736ZM143.946 9.512C142.837 9.512 141.962 9.24533 141.322 8.712C140.704 8.17867 140.394 7.48533 140.394 6.632C140.394 5.88533 140.597 5.192 141.002 4.552C141.408 3.912 141.973 3.41067 142.698 3.048C143.445 2.664 144.266 2.472 145.162 2.472C146.25 2.472 147.104 2.74933 147.722 3.304C148.362 3.83733 148.682 4.54133 148.682 5.416C148.682 6.16267 148.48 6.84533 148.074 7.464C147.669 8.08267 147.104 8.584 146.378 8.968C145.653 9.33067 144.842 9.512 143.946 9.512ZM147.21 10.952L144.01 29H136.906L140.106 10.952H147.21ZM147.859 19.976C148.2 18.0987 148.883 16.4667 149.907 15.08C150.931 13.672 152.2 12.5947 153.715 11.848C155.251 11.1013 156.915 10.728 158.707 10.728C161.053 10.728 162.909 11.3893 164.275 12.712C165.661 14.0347 166.365 15.8693 166.387 18.216H158.867C158.717 17.2773 158.248 16.808 157.459 16.808C156.883 16.808 156.381 17.0747 155.955 17.608C155.549 18.1413 155.251 18.9307 155.059 19.976C154.973 20.5733 154.931 20.968 154.931 21.16C154.931 21.8213 155.059 22.3227 155.315 22.664C155.571 22.984 155.923 23.144 156.371 23.144C157.181 23.144 157.8 22.6747 158.227 21.736H165.747C164.915 24.0827 163.571 25.9173 161.715 27.24C159.88 28.5627 157.789 29.224 155.443 29.224C153.053 29.224 151.155 28.5947 149.747 27.336C148.36 26.056 147.667 24.2853 147.667 22.024C147.667 21.3627 147.731 20.68 147.859 19.976ZM167.359 19.976C167.7 18.0773 168.319 16.4347 169.215 15.048C170.111 13.64 171.188 12.5733 172.447 11.848C173.705 11.1013 175.039 10.728 176.447 10.728C177.62 10.728 178.591 10.9733 179.359 11.464C180.127 11.9333 180.66 12.584 180.959 13.416L181.407 10.952H188.479L185.279 29H178.207L178.655 26.536C178.057 27.368 177.289 28.0293 176.351 28.52C175.412 28.9893 174.356 29.224 173.183 29.224C171.369 29.224 169.908 28.616 168.799 27.4C167.689 26.184 167.135 24.4987 167.135 22.344C167.135 21.5333 167.209 20.744 167.359 19.976ZM179.807 19.976C179.849 19.784 179.871 19.528 179.871 19.208C179.871 18.4827 179.679 17.928 179.295 17.544C178.911 17.1387 178.388 16.936 177.727 16.936C176.959 16.936 176.276 17.2027 175.679 17.736C175.103 18.2693 174.729 19.016 174.559 19.976C174.516 20.168 174.495 20.424 174.495 20.744C174.495 21.4693 174.687 22.0347 175.071 22.44C175.455 22.824 175.977 23.016 176.639 23.016C177.407 23.016 178.079 22.7493 178.655 22.216C179.252 21.6827 179.636 20.936 179.807 19.976Z" fill="#FFE5EC"/>
<path d="M63.112 11.976V10.976H62.268L62.1262 11.808L63.112 11.976ZM62.632 14.792L61.6462 14.624L61.4471 15.792H62.632V14.792ZM69.672 14.792L70.6562 14.9688L70.8676 13.792H69.672V14.792ZM68.712 20.136V21.136H69.5484L69.6962 20.3128L68.712 20.136ZM61.672 20.136V19.136H60.8359L60.6878 19.9588L61.672 20.136ZM61.096 23.336L60.1118 23.1588L59.8999 24.336H61.096V23.336ZM69.096 23.336L70.081 23.5085L70.2864 22.336H69.096V23.336ZM68.104 29V30H68.9441L69.089 29.1725L68.104 29ZM53 29L52.0152 28.8261L51.808 30H53V29ZM57 6.344V5.344H56.1611L56.0152 6.17014L57 6.344ZM72.104 6.344L73.0888 6.51747L73.2955 5.344H72.104V6.344ZM71.112 11.976V12.976H71.9513L72.0968 12.1495L71.112 11.976ZM62.1262 11.808L61.6462 14.624L63.6178 14.96L64.0978 12.144L62.1262 11.808ZM62.632 15.792H69.672V13.792H62.632V15.792ZM68.6878 14.6152L67.7278 19.9592L69.6962 20.3128L70.6562 14.9688L68.6878 14.6152ZM68.712 19.136H61.672V21.136H68.712V19.136ZM60.6878 19.9588L60.1118 23.1588L62.0802 23.5132L62.6562 20.3132L60.6878 19.9588ZM61.096 24.336H69.096V22.336H61.096V24.336ZM68.111 23.1635L67.119 28.8275L69.089 29.1725L70.081 23.5085L68.111 23.1635ZM68.104 28H53V30H68.104V28ZM53.9848 29.1739L57.9848 6.51786L56.0152 6.17014L52.0152 28.8261L53.9848 29.1739ZM57 7.344H72.104V5.344H57V7.344ZM71.1192 6.17053L70.1272 11.8025L72.0968 12.1495L73.0888 6.51747L71.1192 6.17053ZM71.112 10.976H63.112V12.976H71.112V10.976ZM74.8132 28.52L74.4532 29.4529L74.4586 29.455L74.8132 28.52ZM71.9333 26.568L71.1524 27.1927L71.161 27.2034L71.1699 27.2139L71.9333 26.568ZM70.9732 22.76V21.76H70.1711L69.9971 22.5431L70.9732 22.76ZM77.7892 22.76L78.7885 22.8L78.83 21.76H77.7892V22.76ZM78.2373 23.944L77.6126 24.7249L77.6248 24.7346L77.6373 24.744L78.2373 23.944ZM80.5413 24.072L80.0172 23.2203L80.0017 23.2299L79.9865 23.24L80.5413 24.072ZM80.3172 22.664L79.87 23.5584L79.8883 23.5676L79.9069 23.5759L80.3172 22.664ZM78.2052 21.96L77.9393 22.9241L77.9528 22.9276L78.2052 21.96ZM75.1012 20.904L74.6929 21.8169L74.7017 21.8207L75.1012 20.904ZM72.9573 19.304L72.1853 19.9397L72.1955 19.9521L72.2061 19.9641L72.9573 19.304ZM73.0212 13.576L72.2167 12.9821L72.2142 12.9855L73.0212 13.576ZM75.7733 11.496L76.1591 12.4186L76.1672 12.4151L75.7733 11.496ZM84.2853 11.592L83.8572 12.4958L83.8632 12.4986L84.2853 11.592ZM87.0693 13.928L86.2233 14.4613V14.4613L87.0693 13.928ZM87.9333 17.192V18.192H88.8982L88.9326 17.2277L87.9333 17.192ZM81.6292 17.192H80.6292V18.192H81.6292V17.192ZM81.1813 16.072L80.5008 16.8048L80.5154 16.8183L80.5305 16.8313L81.1813 16.072ZM78.9412 15.88L78.4374 15.0162L78.4207 15.026L78.4044 15.0363L78.9412 15.88ZM79.2292 17.288L78.782 18.1824L78.8003 18.1915L78.8189 18.1999L79.2292 17.288ZM81.4053 18.056L81.107 19.0105L81.1176 19.0138L81.1284 19.0169L81.4053 18.056ZM84.5093 19.144L84.1009 20.0568L84.1152 20.0632L84.1297 20.0692L84.5093 19.144ZM86.6852 20.712L85.9341 21.3721L85.9391 21.3779L85.9443 21.3835L86.6852 20.712ZM85.2132 27.688L85.7574 28.527L85.7602 28.5252L85.2132 27.688ZM79.0373 28.224C77.5569 28.224 76.2724 28.0039 75.1679 27.585L74.4586 29.455C75.8288 29.9747 77.3602 30.224 79.0373 30.224V28.224ZM75.1733 27.5871C74.0831 27.1663 73.273 26.6032 72.6966 25.9221L71.1699 27.2139C72.0015 28.1968 73.1114 28.935 74.4532 29.4529L75.1733 27.5871ZM72.7141 25.9433C72.1726 25.2664 71.9093 24.5158 71.9093 23.656H69.9093C69.9093 24.9722 70.3285 26.1629 71.1524 27.1927L72.7141 25.9433ZM71.9093 23.656C71.9093 23.2638 71.9317 23.0565 71.9494 22.9769L69.9971 22.5431C69.9294 22.8475 69.9093 23.2375 69.9093 23.656H71.9093ZM70.9732 23.76H77.7892V21.76H70.9732V23.76ZM76.79 22.72C76.7602 23.4655 76.9721 24.2125 77.6126 24.7249L78.8619 23.1631C78.8462 23.1505 78.8338 23.1371 78.8205 23.1021C78.8042 23.059 78.7818 22.9666 78.7885 22.8L76.79 22.72ZM77.6373 24.744C78.2033 25.1685 78.8958 25.328 79.6133 25.328V23.328C79.1787 23.328 78.9539 23.2315 78.8372 23.144L77.6373 24.744ZM79.6133 25.328C80.1373 25.328 80.6481 25.2026 81.096 24.904L79.9865 23.24C79.9224 23.2827 79.8145 23.328 79.6133 23.328V25.328ZM81.0653 24.9237C81.5114 24.6492 81.9573 24.1728 81.9573 23.464H79.9573C79.9573 23.4225 79.9636 23.3771 79.978 23.3318C79.9923 23.2868 80.0112 23.2517 80.0279 23.2273C80.0591 23.1818 80.0734 23.1857 80.0172 23.2203L81.0653 24.9237ZM81.9573 23.464C81.9573 22.5819 81.3561 22.0349 80.7276 21.7521L79.9069 23.5759C79.964 23.6016 79.9976 23.6226 80.0147 23.6348C80.0314 23.6468 80.0282 23.6474 80.0164 23.6327C80.0036 23.6167 79.9865 23.5897 79.9736 23.5531C79.9608 23.5165 79.9573 23.4847 79.9573 23.464H81.9573ZM80.7645 21.7696C80.2386 21.5066 79.4487 21.2509 78.4577 20.9924L77.9528 22.9276C78.9245 23.1811 79.5426 23.3947 79.87 23.5584L80.7645 21.7696ZM78.4712 20.996C77.2624 20.6626 76.2758 20.3251 75.5008 19.9873L74.7017 21.8207C75.5907 22.2082 76.6734 22.5748 77.9393 22.924L78.4712 20.996ZM75.5096 19.9912C74.8372 19.6904 74.2376 19.2461 73.7084 18.6439L72.2061 19.9641C72.9142 20.7699 73.7439 21.3923 74.6929 21.8168L75.5096 19.9912ZM73.7292 18.6683C73.3104 18.1598 73.0613 17.4622 73.0613 16.488H71.0613C71.0613 17.8178 71.4094 18.9975 72.1853 19.9397L73.7292 18.6683ZM73.0613 16.488C73.0613 15.6373 73.3115 14.8728 73.8283 14.1665L72.2142 12.9855C71.451 14.0286 71.0613 15.2054 71.0613 16.488H73.0613ZM73.8258 14.1699C74.3653 13.439 75.1283 12.8496 76.1591 12.4186L75.3874 10.5734C74.0715 11.1237 72.9999 11.921 72.2167 12.9821L73.8258 14.1699ZM76.1672 12.4151C77.2153 11.966 78.453 11.728 79.9013 11.728V9.728C78.2348 9.728 76.7206 10.002 75.3793 10.5769L76.1672 12.4151ZM79.9013 11.728C81.4984 11.728 82.8059 11.9978 83.8572 12.4957L84.7133 10.6883C83.3326 10.0342 81.7175 9.728 79.9013 9.728V11.728ZM83.8632 12.4986C84.9576 13.008 85.7241 13.6695 86.2233 14.4613L87.9152 13.3947C87.177 12.2239 86.0876 11.328 84.7073 10.6854L83.8632 12.4986ZM86.2233 14.4613C86.7314 15.2673 86.9696 16.1559 86.9339 17.1563L88.9326 17.2277C88.9822 15.8388 88.6444 14.5514 87.9152 13.3947L86.2233 14.4613ZM87.9333 16.192H81.6292V18.192H87.9333V16.192ZM82.6292 17.192C82.6292 16.4877 82.4056 15.8044 81.832 15.3127L80.5305 16.8313C80.5542 16.8516 80.6292 16.915 80.6292 17.192H82.6292ZM81.8617 15.3392C81.3137 14.8303 80.5933 14.656 79.8693 14.656V16.656C80.2972 16.656 80.4515 16.759 80.5008 16.8048L81.8617 15.3392ZM79.8693 14.656C79.369 14.656 78.8771 14.7597 78.4374 15.0162L79.4451 16.7438C79.5174 16.7016 79.6442 16.656 79.8693 16.656V14.656ZM78.4044 15.0363C77.9111 15.3503 77.5893 15.8562 77.5893 16.488H79.5893C79.5893 16.5191 79.5802 16.5801 79.5427 16.645C79.5071 16.7065 79.4709 16.7283 79.4781 16.7237L78.4044 15.0363ZM77.5893 16.488C77.5893 17.3576 78.2027 17.8927 78.782 18.1824L79.6765 16.3936C79.6136 16.3621 79.5731 16.3359 79.5492 16.318C79.5255 16.3002 79.5227 16.2941 79.5301 16.3033C79.5384 16.3137 79.5552 16.3381 79.569 16.3763C79.5832 16.4152 79.5893 16.4544 79.5893 16.488H77.5893ZM78.8189 18.1999C79.3051 18.4187 80.0807 18.6898 81.107 19.0105L81.7035 17.1015C80.6818 16.7822 80.0067 16.5413 79.6396 16.3761L78.8189 18.1999ZM81.1284 19.0169C82.3611 19.3721 83.3477 19.7199 84.1009 20.0568L84.9176 18.2312C84.0494 17.8428 82.9667 17.4652 81.6821 17.0951L81.1284 19.0169ZM84.1297 20.0692C84.813 20.3495 85.4128 20.7789 85.9341 21.3721L87.4364 20.0519C86.7204 19.2371 85.8695 18.6212 84.8888 18.2188L84.1297 20.0692ZM85.9443 21.3835C86.3702 21.8535 86.6133 22.4758 86.6133 23.336H88.6133C88.6133 22.0629 88.2377 20.9358 87.4262 20.0405L85.9443 21.3835ZM86.6133 23.336C86.6133 24.8424 85.9938 25.9836 84.6663 26.8508L85.7602 28.5252C87.6327 27.3018 88.6133 25.5416 88.6133 23.336H86.6133ZM84.6691 26.849C83.2999 27.7372 81.4484 28.224 79.0373 28.224V30.224C81.7034 30.224 83.9693 29.6868 85.7574 28.527L84.6691 26.849ZM98.8165 21.736L99.7866 21.9785L99.795 21.945L99.8011 21.9109L98.8165 21.736ZM101.632 22.952L102.617 23.1291L102.828 21.952H101.632V22.952ZM100.545 29V30H101.381L101.529 29.1771L100.545 29ZM91.7445 21.608L92.7293 21.7818L92.7294 21.781L91.7445 21.608ZM92.5765 16.872L93.5614 17.045L93.7675 15.872H92.5765V16.872ZM90.3365 16.872L89.352 16.6964L89.1423 17.872H90.3365V16.872ZM91.3925 10.952V9.952H90.5551L90.408 10.7764L91.3925 10.952ZM93.6325 10.952V11.952H94.4715L94.6173 11.1258L93.6325 10.952ZM94.4005 6.6V5.6H93.5615L93.4157 6.42621L94.4005 6.6ZM101.505 6.6L102.489 6.77378L102.696 5.6H101.505V6.6ZM100.736 10.952L99.7517 10.7782L99.5446 11.952H100.736V10.952ZM103.681 10.952L104.665 11.1276L104.875 9.952H103.681V10.952ZM102.625 16.872V17.872H103.462L103.609 17.0476L102.625 16.872ZM99.6805 16.872V15.872H98.8425L98.6959 16.6971L99.6805 16.872ZM97.8464 21.4935C97.7985 21.6851 97.7845 21.8797 97.7845 22.056H99.7845C99.7845 22.0191 99.7861 21.9942 99.7875 21.9795C99.7891 21.9644 99.7899 21.9653 99.7866 21.9785L97.8464 21.4935ZM97.7845 22.056C97.7845 22.5853 97.9674 23.1354 98.4586 23.5174C98.9019 23.8622 99.4505 23.952 99.9365 23.952V21.952C99.806 21.952 99.7258 21.939 99.6835 21.928C99.6427 21.9174 99.6537 21.9132 99.6864 21.9386C99.7029 21.9514 99.7212 21.969 99.7383 21.9912C99.7554 22.0134 99.7676 22.0353 99.7756 22.0541C99.7916 22.0913 99.7845 22.0996 99.7845 22.056H97.7845ZM99.9365 23.952H101.632V21.952H99.9365V23.952ZM100.648 22.7749L99.5603 28.8229L101.529 29.1771L102.617 23.1291L100.648 22.7749ZM100.545 28H97.8565V30H100.545V28ZM97.8565 28C95.8727 28 94.5713 27.5761 93.7751 26.9012C93.0107 26.2531 92.5525 25.236 92.5525 23.656H90.5525C90.5525 25.6387 91.145 27.2935 92.4819 28.4268C93.7871 29.5333 95.6377 30 97.8565 30V28ZM92.5525 23.656C92.5525 23.0822 92.6099 22.4581 92.7293 21.7818L90.7597 21.4342C90.6231 22.2085 90.5525 22.9498 90.5525 23.656H92.5525ZM92.7294 21.781L93.5614 17.045L91.5916 16.699L90.7596 21.435L92.7294 21.781ZM92.5765 15.872H90.3365V17.872H92.5765V15.872ZM91.321 17.0476L92.377 11.1276L90.408 10.7764L89.352 16.6964L91.321 17.0476ZM91.3925 11.952H93.6325V9.952H91.3925V11.952ZM94.6173 11.1258L95.3853 6.77378L93.4157 6.42621L92.6477 10.7782L94.6173 11.1258ZM94.4005 7.6H101.505V5.6H94.4005V7.6ZM100.52 6.42621L99.7517 10.7782L101.721 11.1258L102.489 6.77378L100.52 6.42621ZM100.736 11.952H103.681V9.952H100.736V11.952ZM102.696 10.7764L101.64 16.6964L103.609 17.0476L104.665 11.1276L102.696 10.7764ZM102.625 15.872H99.6805V17.872H102.625V15.872ZM98.6959 16.6971L97.8319 21.5611L99.8011 21.9109L100.665 17.0469L98.6959 16.6971ZM120.434 12.648L119.761 13.388L119.768 13.3935L120.434 12.648ZM122.354 19.816L123.332 20.0235L123.335 20.0092L123.338 19.9949L122.354 19.816ZM122.002 21.224V22.224H122.702L122.942 21.5657L122.002 21.224ZM110.61 21.224V20.224H109.763L109.624 21.0596L110.61 21.224ZM113.97 22.504V21.504H113.421L113.126 21.9671L113.97 22.504ZM121.49 22.504L122.429 22.8483L122.922 21.504H121.49V22.504ZM119.282 25.96L119.989 26.6671L119.997 26.6596L119.282 25.96ZM115.73 28.36L116.124 29.2792L116.131 29.2762L115.73 28.36ZM105.778 27.336L105.1 28.0708L105.106 28.0762L105.112 28.0815L105.778 27.336ZM103.89 19.976L104.874 20.1549V20.1549L103.89 19.976ZM105.938 15.08L106.742 15.6741L106.747 15.6682L105.938 15.08ZM109.746 11.848L109.309 10.9486L109.304 10.9511L109.746 11.848ZM115.41 18.312V19.312H116.23L116.391 18.5081L115.41 18.312ZM114.962 16.68L115.587 15.8991V15.8991L114.962 16.68ZM111.154 18.312L110.205 17.9958L109.767 19.312H111.154V18.312ZM114.738 11.728C116.945 11.728 118.581 12.315 119.761 13.3879L121.107 11.9081C119.471 10.421 117.31 9.728 114.738 9.728V11.728ZM119.768 13.3935C120.928 14.4308 121.546 15.8681 121.546 17.832H123.546C123.546 15.4012 122.756 13.3825 121.1 11.9025L119.768 13.3935ZM121.546 17.832C121.546 18.3822 121.489 18.9832 121.37 19.6371L123.338 19.9949C123.475 19.2408 123.546 18.5191 123.546 17.832H121.546ZM121.376 19.6085C121.224 20.322 121.12 20.7237 121.062 20.8823L122.942 21.5657C123.055 21.255 123.185 20.718 123.332 20.0235L121.376 19.6085ZM122.002 20.224H110.61V22.224H122.002V20.224ZM109.624 21.0596C109.589 21.2688 109.578 21.5147 109.578 21.768H111.578C111.578 21.552 111.589 21.4352 111.596 21.3884L109.624 21.0596ZM109.578 21.768C109.578 22.485 109.728 23.2093 110.203 23.7628C110.702 24.3457 111.404 24.56 112.114 24.56V22.56C111.8 22.56 111.734 22.4756 111.721 22.4612C111.684 22.4173 111.578 22.2457 111.578 21.768H109.578ZM112.114 24.56C113.268 24.56 114.195 24.0135 114.814 23.0409L113.126 21.9671C112.849 22.4025 112.539 22.56 112.114 22.56V24.56ZM113.97 23.504H121.49V21.504H113.97V23.504ZM120.551 22.1597C120.133 23.2999 119.476 24.3323 118.567 25.2604L119.997 26.6596C121.093 25.5397 121.908 24.2681 122.429 22.8483L120.551 22.1597ZM118.575 25.2529C117.665 26.1629 116.586 26.8939 115.329 27.4438L116.131 29.2762C117.604 28.6314 118.894 27.7624 119.989 26.6671L118.575 25.2529ZM115.336 27.4409C114.119 27.9624 112.835 28.224 111.474 28.224V30.224C113.1 30.224 114.653 29.9096 116.124 29.2791L115.336 27.4409ZM111.474 28.224C109.263 28.224 107.624 27.6453 106.444 26.5905L105.112 28.0815C106.748 29.5441 108.906 30.224 111.474 30.224V28.224ZM106.456 26.6012C105.315 25.5477 104.698 24.0663 104.698 22.024H102.698C102.698 24.5044 103.468 26.5643 105.1 28.0708L106.456 26.6012ZM104.698 22.024C104.698 21.4273 104.756 20.8046 104.874 20.1549L102.906 19.7971C102.768 20.5554 102.698 21.298 102.698 22.024H104.698ZM104.874 20.1549C105.191 18.4116 105.819 16.9252 106.742 15.674L105.134 14.486C104.009 16.0081 103.272 17.7858 102.906 19.7971L104.874 20.1549ZM106.747 15.6682C107.678 14.3871 108.824 13.4177 110.188 12.7449L109.304 10.9511C107.639 11.7717 106.246 12.9569 105.129 14.4918L106.747 15.6682ZM110.183 12.7474C111.576 12.0702 113.09 11.728 114.738 11.728V9.728C112.802 9.728 110.988 10.1325 109.309 10.9486L110.183 12.7474ZM116.391 18.5081C116.432 18.3015 116.442 18.0612 116.442 17.832H114.442C114.442 17.9232 114.44 17.9935 114.436 18.0455C114.433 18.1003 114.429 18.1202 114.429 18.1159L116.391 18.5081ZM116.442 17.832C116.442 17.0993 116.202 16.3914 115.587 15.8991L114.337 17.4609C114.362 17.4806 114.442 17.5407 114.442 17.832H116.442ZM115.587 15.8991C115.056 15.4747 114.417 15.296 113.746 15.296V17.296C114.056 17.296 114.228 17.3733 114.337 17.4609L115.587 15.8991ZM113.746 15.296C112.923 15.296 112.16 15.5158 111.524 16.0106C110.896 16.4989 110.474 17.1911 110.205 17.9958L112.103 18.6282C112.282 18.0889 112.516 17.7731 112.752 17.5894C112.98 17.4122 113.289 17.296 113.746 17.296V15.296ZM111.154 19.312H115.41V17.312H111.154V19.312ZM132.473 21.736L133.443 21.9785L133.451 21.945L133.457 21.9109L132.473 21.736ZM135.289 22.952L136.273 23.1291L136.485 21.952H135.289V22.952ZM134.201 29V30H135.037L135.185 29.1771L134.201 29ZM125.401 21.608L126.386 21.7818L126.386 21.781L125.401 21.608ZM126.233 16.872L127.218 17.045L127.424 15.872H126.233V16.872ZM123.993 16.872L123.008 16.6964L122.799 17.872H123.993V16.872ZM125.049 10.952V9.952H124.211L124.064 10.7764L125.049 10.952ZM127.289 10.952V11.952H128.128L128.274 11.1258L127.289 10.952ZM128.057 6.6V5.6H127.218L127.072 6.42621L128.057 6.6ZM135.161 6.6L136.146 6.77378L136.353 5.6H135.161V6.6ZM134.393 10.952L133.408 10.7782L133.201 11.952H134.393V10.952ZM137.337 10.952L138.321 11.1276L138.531 9.952H137.337V10.952ZM136.281 16.872V17.872H137.118L137.265 17.0476L136.281 16.872ZM133.337 16.872V15.872H132.499L132.352 16.6971L133.337 16.872ZM131.503 21.4935C131.455 21.6851 131.441 21.8797 131.441 22.056H133.441C133.441 22.0191 133.442 21.9942 133.444 21.9795C133.445 21.9644 133.446 21.9653 133.443 21.9785L131.503 21.4935ZM131.441 22.056C131.441 22.5853 131.624 23.1354 132.115 23.5174C132.558 23.8622 133.107 23.952 133.593 23.952V21.952C133.462 21.952 133.382 21.939 133.34 21.928C133.299 21.9174 133.31 21.9132 133.343 21.9386C133.359 21.9514 133.377 21.969 133.395 21.9912C133.412 22.0134 133.424 22.0353 133.432 22.0541C133.448 22.0913 133.441 22.0996 133.441 22.056H131.441ZM133.593 23.952H135.289V21.952H133.593V23.952ZM134.305 22.7749L133.217 28.8229L135.185 29.1771L136.273 23.1291L134.305 22.7749ZM134.201 28H131.513V30H134.201V28ZM131.513 28C129.529 28 128.228 27.5761 127.431 26.9012C126.667 26.2531 126.209 25.236 126.209 23.656H124.209C124.209 25.6387 124.801 27.2935 126.138 28.4268C127.443 29.5333 129.294 30 131.513 30V28ZM126.209 23.656C126.209 23.0822 126.266 22.4581 126.386 21.7818L124.416 21.4342C124.279 22.2085 124.209 22.9498 124.209 23.656H126.209ZM126.386 21.781L127.218 17.045L125.248 16.699L124.416 21.435L126.386 21.781ZM126.233 15.872H123.993V17.872H126.233V15.872ZM124.977 17.0476L126.033 11.1276L124.064 10.7764L123.008 16.6964L124.977 17.0476ZM125.049 11.952H127.289V9.952H125.049V11.952ZM128.274 11.1258L129.042 6.77378L127.072 6.42621L126.304 10.7782L128.274 11.1258ZM128.057 7.6H135.161V5.6H128.057V7.6ZM134.176 6.42621L133.408 10.7782L135.378 11.1258L136.146 6.77378L134.176 6.42621ZM134.393 11.952H137.337V9.952H134.393V11.952ZM136.352 10.7764L135.296 16.6964L137.265 17.0476L138.321 11.1276L136.352 10.7764ZM136.281 15.872H133.337V17.872H136.281V15.872ZM132.352 16.6971L131.488 21.5611L133.457 21.9109L134.321 17.0469L132.352 16.6971ZM141.322 8.712L140.669 9.46941L140.676 9.47487L140.682 9.48022L141.322 8.712ZM141.002 4.552L140.157 4.01695V4.01695L141.002 4.552ZM142.698 3.048L143.145 3.94248L143.156 3.93729L142.698 3.048ZM147.722 3.304L147.055 4.04857L147.068 4.06064L147.082 4.07222L147.722 3.304ZM148.074 7.464L147.238 6.91597L147.238 6.91597L148.074 7.464ZM146.378 8.968L146.825 9.86243L146.836 9.85723L146.846 9.85179L146.378 8.968ZM147.21 10.952L148.195 11.1266L148.403 9.952H147.21V10.952ZM144.01 29V30H144.849L144.995 29.1746L144.01 29ZM136.906 29L135.922 28.8254L135.713 30H136.906V29ZM140.106 10.952V9.952H139.268L139.122 10.7774L140.106 10.952ZM143.946 8.512C142.993 8.512 142.371 8.28399 141.962 7.94378L140.682 9.48022C141.554 10.2067 142.681 10.512 143.946 10.512V8.512ZM141.975 7.95459C141.588 7.62071 141.394 7.20925 141.394 6.632H139.394C139.394 7.76141 139.819 8.73662 140.669 9.46941L141.975 7.95459ZM141.394 6.632C141.394 6.07769 141.542 5.56947 141.847 5.08705L140.157 4.01695C139.652 4.81453 139.394 5.69298 139.394 6.632H141.394ZM141.847 5.08705C142.148 4.61167 142.571 4.22967 143.145 3.94243L142.251 2.15357C141.375 2.59166 140.667 3.21233 140.157 4.01695L141.847 5.08705ZM143.156 3.93729C143.751 3.6309 144.414 3.472 145.162 3.472V1.472C144.118 1.472 143.138 1.6971 142.241 2.15871L143.156 3.93729ZM145.162 3.472C146.082 3.472 146.67 3.7039 147.055 4.04857L148.39 2.55943C147.537 1.79476 146.419 1.472 145.162 1.472V3.472ZM147.082 4.07222C147.481 4.40494 147.682 4.82112 147.682 5.416H149.682C149.682 4.26154 149.243 3.26972 148.362 2.53578L147.082 4.07222ZM147.682 5.416C147.682 5.96994 147.535 6.46181 147.238 6.91597L148.911 8.01203C149.424 7.22886 149.682 6.35539 149.682 5.416H147.682ZM147.238 6.91597C146.935 7.37839 146.503 7.77038 145.91 8.08421L146.846 9.85179C147.704 9.39762 148.403 8.78694 148.911 8.01202L147.238 6.91597ZM145.931 8.07357C145.359 8.35978 144.704 8.512 143.946 8.512V10.512C144.981 10.512 145.947 10.3015 146.825 9.86243L145.931 8.07357ZM146.226 10.7774L143.026 28.8254L144.995 29.1746L148.195 11.1266L146.226 10.7774ZM144.01 28H136.906V30H144.01V28ZM137.891 29.1746L141.091 11.1266L139.122 10.7774L135.922 28.8254L137.891 29.1746ZM140.106 11.952H147.21V9.952H140.106V11.952ZM147.859 19.976L148.843 20.1549V20.1549L147.859 19.976ZM149.907 15.08L150.711 15.6741L150.715 15.6682L149.907 15.08ZM153.715 11.848L153.278 10.9486L153.273 10.9511L153.715 11.848ZM164.275 12.712L163.579 13.4303L163.585 13.4356L164.275 12.712ZM166.387 18.216V19.216H167.396L167.387 18.2069L166.387 18.216ZM158.867 18.216L157.879 18.3731L158.013 19.216H158.867V18.216ZM155.955 17.608L155.174 16.9833L155.166 16.993L155.159 17.0029L155.955 17.608ZM155.059 19.976L154.075 19.7953L154.072 19.8149L154.069 19.8346L155.059 19.976ZM155.315 22.664L154.515 23.264L154.524 23.2765L154.534 23.2887L155.315 22.664ZM158.227 21.736V20.736H157.583L157.316 21.3222L158.227 21.736ZM165.747 21.736L166.689 22.0702L167.162 20.736H165.747V21.736ZM161.715 27.24L161.134 26.4256L161.13 26.4288L161.715 27.24ZM149.747 27.336L149.068 28.0708L149.074 28.0762L149.08 28.0815L149.747 27.336ZM148.843 20.1549C149.16 18.4116 149.787 16.9252 150.711 15.674L149.102 14.486C147.978 16.0081 147.241 17.7858 146.875 19.7971L148.843 20.1549ZM150.715 15.6682C151.647 14.3871 152.792 13.4177 154.157 12.7449L153.273 10.9511C151.608 11.7717 150.214 12.9569 149.098 14.4918L150.715 15.6682ZM154.152 12.7474C155.545 12.0702 157.059 11.728 158.707 11.728V9.728C156.771 9.728 154.957 10.1325 153.278 10.9486L154.152 12.7474ZM158.707 11.728C160.858 11.728 162.442 12.3286 163.579 13.4302L164.971 11.9938C163.377 10.4501 161.249 9.728 158.707 9.728V11.728ZM163.585 13.4356C164.733 14.5313 165.367 16.0838 165.387 18.2251L167.387 18.2069C167.364 15.6548 166.59 13.538 164.965 11.9884L163.585 13.4356ZM166.387 17.216H158.867V19.216H166.387V17.216ZM159.854 18.0589C159.76 17.468 159.546 16.8887 159.11 16.4529C158.653 15.9958 158.065 15.808 157.459 15.808V17.808C157.642 17.808 157.683 17.8549 157.696 17.8671C157.729 17.9006 157.824 18.0254 157.879 18.3731L159.854 18.0589ZM157.459 15.808C156.521 15.808 155.751 16.2619 155.174 16.9833L156.736 18.2327C157.012 17.8874 157.244 17.808 157.459 17.808V15.808ZM155.159 17.0029C154.619 17.7133 154.281 18.6769 154.075 19.7953L156.042 20.1567C156.221 19.1845 156.48 18.5693 156.751 18.2131L155.159 17.0029ZM154.069 19.8346C153.986 20.4176 153.931 20.8843 153.931 21.16H155.931C155.931 21.0517 155.961 20.7291 156.049 20.1174L154.069 19.8346ZM153.931 21.16C153.931 21.9261 154.075 22.6776 154.515 23.264L156.115 22.064C156.043 21.9677 155.931 21.7166 155.931 21.16H153.931ZM154.534 23.2887C154.999 23.8701 155.651 24.144 156.371 24.144V22.144C156.194 22.144 156.143 22.0979 156.096 22.0393L154.534 23.2887ZM156.371 24.144C156.984 24.144 157.556 23.9613 158.047 23.5887C158.525 23.2263 158.877 22.7225 159.137 22.1498L157.316 21.3222C157.15 21.6882 156.979 21.8884 156.838 21.9953C156.711 22.092 156.568 22.144 156.371 22.144V24.144ZM158.227 22.736H165.747V20.736H158.227V22.736ZM164.804 21.4018C164.034 23.5738 162.808 25.2331 161.134 26.4256L162.295 28.0544C164.334 26.6015 165.795 24.5915 166.689 22.0702L164.804 21.4018ZM161.13 26.4288C159.472 27.6239 157.588 28.224 155.443 28.224V30.224C157.991 30.224 160.288 29.5014 162.3 28.0512L161.13 26.4288ZM155.443 28.224C153.232 28.224 151.593 27.6453 150.413 26.5905L149.08 28.0815C150.716 29.5441 152.875 30.224 155.443 30.224V28.224ZM150.425 26.6012C149.284 25.5477 148.667 24.0663 148.667 22.024H146.667C146.667 24.5044 147.436 26.5643 149.068 28.0708L150.425 26.6012ZM148.667 22.024C148.667 21.4273 148.724 20.8046 148.843 20.1549L146.875 19.7971C146.737 20.5554 146.667 21.298 146.667 22.024H148.667ZM167.359 19.976L168.34 20.1669L168.342 20.1599L168.343 20.1529L167.359 19.976ZM169.215 15.048L170.055 15.5907L170.058 15.5849L169.215 15.048ZM172.447 11.848L172.946 12.7145L172.957 12.7081L172.447 11.848ZM179.359 11.464L178.82 12.3067L178.829 12.3121L178.837 12.3173L179.359 11.464ZM180.959 13.416L180.018 13.7539L181.276 17.2601L181.943 13.5949L180.959 13.416ZM181.407 10.952V9.952H180.572L180.423 10.7731L181.407 10.952ZM188.479 10.952L189.463 11.1266L189.672 9.952H188.479V10.952ZM185.279 29V30H186.117L186.263 29.1746L185.279 29ZM178.207 29L177.223 28.8211L177.009 30H178.207V29ZM178.655 26.536L179.639 26.7149L177.842 25.9528L178.655 26.536ZM176.351 28.52L176.798 29.4144L176.806 29.4104L176.814 29.4062L176.351 28.52ZM168.799 27.4L168.06 28.074L168.799 27.4ZM179.807 19.976L178.831 19.7591L178.826 19.7799L178.822 19.801L179.807 19.976ZM179.295 17.544L178.569 18.2317L178.578 18.2416L178.588 18.2511L179.295 17.544ZM175.679 17.736L175.013 16.9901L175.006 16.9961L174.999 17.0022L175.679 17.736ZM174.559 19.976L175.535 20.1929L175.54 20.1721L175.543 20.151L174.559 19.976ZM175.071 22.44L174.345 23.1277L174.354 23.1376L174.364 23.1471L175.071 22.44ZM178.655 22.216L177.989 21.4701L177.982 21.4761L177.975 21.4822L178.655 22.216ZM168.343 20.1529C168.665 18.3629 169.242 16.8491 170.055 15.5907L168.375 14.5053C167.396 16.0202 166.735 17.7918 166.375 19.7991L168.343 20.1529ZM170.058 15.5849C170.881 14.2925 171.847 13.348 172.946 12.7144L171.947 10.9816C170.53 11.7986 169.341 12.9875 168.371 14.5111L170.058 15.5849ZM172.957 12.7081C174.068 12.0492 175.226 11.728 176.447 11.728V9.728C174.852 9.728 173.343 10.1534 171.937 10.9879L172.957 12.7081ZM176.447 11.728C177.483 11.728 178.253 11.9445 178.82 12.3067L179.897 10.6213C178.928 10.0022 177.757 9.728 176.447 9.728V11.728ZM178.837 12.3173C179.415 12.67 179.797 13.1407 180.018 13.7539L181.9 13.0781C181.523 12.0273 180.839 11.1966 179.88 10.6107L178.837 12.3173ZM181.943 13.5949L182.391 11.1309L180.423 10.7731L179.975 13.2371L181.943 13.5949ZM181.407 11.952H188.479V9.952H181.407V11.952ZM187.494 10.7774L184.294 28.8254L186.263 29.1746L189.463 11.1266L187.494 10.7774ZM185.279 28H178.207V30H185.279V28ZM179.191 29.1789L179.639 26.7149L177.671 26.3571L177.223 28.8211L179.191 29.1789ZM177.842 25.9528C177.339 26.6535 176.693 27.2129 175.887 27.6338L176.814 29.4062C177.886 28.8458 178.775 28.0825 179.467 27.1192L177.842 25.9528ZM175.904 27.6256C175.119 28.0176 174.219 28.224 173.183 28.224V30.224C174.493 30.224 175.705 29.961 176.798 29.4144L175.904 27.6256ZM173.183 28.224C171.619 28.224 170.437 27.7119 169.538 26.726L168.06 28.074C169.379 29.5201 171.12 30.224 173.183 30.224V28.224ZM169.538 26.726C168.643 25.7453 168.135 24.3283 168.135 22.344H166.135C166.135 24.669 166.736 26.6227 168.06 28.074L169.538 26.726ZM168.135 22.344C168.135 21.5951 168.204 20.8698 168.34 20.1669L166.377 19.7851C166.215 20.6182 166.135 21.4716 166.135 22.344H168.135ZM180.783 20.1929C180.848 19.8995 180.871 19.5616 180.871 19.208H178.871C178.871 19.4944 178.851 19.6685 178.831 19.7591L180.783 20.1929ZM180.871 19.208C180.871 18.3094 180.63 17.4647 180.002 16.8369L178.588 18.2511C178.728 18.3913 178.871 18.656 178.871 19.208H180.871ZM180.021 16.8563C179.413 16.215 178.608 15.936 177.727 15.936V17.936C178.168 17.936 178.408 18.0624 178.569 18.2317L180.021 16.8563ZM177.727 15.936C176.702 15.936 175.785 16.3008 175.013 16.9901L176.345 18.4819C176.767 18.1046 177.216 17.936 177.727 17.936V15.936ZM174.999 17.0022C174.228 17.7164 173.774 18.6793 173.574 19.801L175.543 20.151C175.685 19.3527 175.977 18.8223 176.358 18.4698L174.999 17.0022ZM173.583 19.7591C173.517 20.0525 173.495 20.3904 173.495 20.744H175.495C175.495 20.4576 175.515 20.2835 175.535 20.1929L173.583 19.7591ZM173.495 20.744C173.495 21.6461 173.737 22.4862 174.345 23.1277L175.797 21.7523C175.636 21.5831 175.495 21.2926 175.495 20.744H173.495ZM174.364 23.1471C174.975 23.7581 175.774 24.016 176.639 24.016V22.016C176.181 22.016 175.935 21.8899 175.778 21.7329L174.364 23.1471ZM176.639 24.016C177.665 24.016 178.578 23.6501 179.334 22.9498L177.975 21.4822C177.58 21.8486 177.149 22.016 176.639 22.016V24.016ZM179.321 22.9619C180.119 22.2491 180.59 21.2822 180.791 20.151L178.822 19.801C178.682 20.5898 178.385 21.1163 177.989 21.4701L179.321 22.9619Z" fill="#FF4D7C" mask="url(#path-8-outside-4_405_9)"/>
</g>
<defs>
<filter id="filter0_d_405_9" x="1.02399" y="38.304" width="113.111" height="25.92" filterUnits="userSpaceOnUse" color-interpolation-filters="sRGB">
<feFlood flood-opacity="0" result="BackgroundImageFix"/>
<feColorMatrix in="SourceAlpha" type="matrix" values="0 0 0 0 0 0 0 0 0 0 0 0 0 0 0 0 0 0 127 0" result="hardAlpha"/>
<feOffset dx="4"/>
<feComposite in2="hardAlpha" operator="out"/>
<feColorMatrix type="matrix" values="0 0 0 0 1 0 0 0 0 0.301961 0 0 0 0 0.486275 0 0 0 1 0"/>
<feBlend mode="normal" in2="BackgroundImageFix" result="effect1_dropShadow_405_9"/>
<feBlend mode="normal" in="SourceGraphic" in2="effect1_dropShadow_405_9" result="shape"/>
</filter>
<filter id="filter1_d_405_9" x="119.496" y="45.728" width="63.1968" height="26.912" filterUnits="userSpaceOnUse" color-interpolation-filters="sRGB">
<feFlood flood-opacity="0" result="BackgroundImageFix"/>
<feColorMatrix in="SourceAlpha" type="matrix" values="0 0 0 0 0 0 0 0 0 0 0 0 0 0 0 0 0 0 127 0" result="hardAlpha"/>
<feOffset dx="4"/>
<feComposite in2="hardAlpha" operator="out"/>
<feColorMatrix type="matrix" values="0 0 0 0 1 0 0 0 0 0.301961 0 0 0 0 0.486275 0 0 0 1 0"/>
<feBlend mode="normal" in2="BackgroundImageFix" result="effect1_dropShadow_405_9"/>
<feBlend mode="normal" in="SourceGraphic" in2="effect1_dropShadow_405_9" result="shape"/>
</filter>
<filter id="filter2_d_405_9" x="189.024" y="41.6" width="36.2095" height="22.624" filterUnits="userSpaceOnUse" color-interpolation-filters="sRGB">
<feFlood flood-opacity="0" result="BackgroundImageFix"/>
<feColorMatrix in="SourceAlpha" type="matrix" values="0 0 0 0 0 0 0 0 0 0 0 0 0 0 0 0 0 0 127 0" result="hardAlpha"/>
<feOffset dx="4"/>
<feComposite in2="hardAlpha" operator="out"/>
<feColorMatrix type="matrix" values="0 0 0 0 1 0 0 0 0 0.301961 0 0 0 0 0.486275 0 0 0 1 0"/>
<feBlend mode="normal" in2="BackgroundImageFix" result="effect1_dropShadow_405_9"/>
<feBlend mode="normal" in="SourceGraphic" in2="effect1_dropShadow_405_9" result="shape"/>
</filter>
<filter id="filter3_d_405_9" x="53" y="2.47205" width="139.479" height="26.752" filterUnits="userSpaceOnUse" color-interpolation-filters="sRGB">
<feFlood flood-opacity="0" result="BackgroundImageFix"/>
<feColorMatrix in="SourceAlpha" type="matrix" values="0 0 0 0 0 0 0 0 0 0 0 0 0 0 0 0 0 0 127 0" result="hardAlpha"/>
<feOffset dx="4"/>
<feComposite in2="hardAlpha" operator="out"/>
<feColorMatrix type="matrix" values="0 0 0 0 1 0 0 0 0 0.301961 0 0 0 0 0.486275 0 0 0 1 0"/>
<feBlend mode="normal" in2="BackgroundImageFix" result="effect1_dropShadow_405_9"/>
<feBlend mode="normal" in="SourceGraphic" in2="effect1_dropShadow_405_9" result="shape"/>
</filter>
</defs>
</svg>
